<svg width="100" height="100" viewBox="0 0 100 100" fill="none" xmlns="http://www.w3.org/2000/svg">
<circle cx="50" cy="50" r="50" fill="white"/>
<path d="M50 25C36.1875 25 25 36.1875 25 50C25 55.5 26.75 60.5625 29.75 64.6875L26.3125 73.75L36.25 70.875C40.1875 73.5 44.9375 75 50 75C63.8125 75 75 63.8125 75 50C75 36.1875 63.8125 25 50 25ZM63.3125 60.375L60.625 63C57.8125 65.8125 50.375 62.75 43.8125 56.125C37.25 49.5625 34.3125 42.125 36.9375 39.375L39.625 36.6875C40.625 35.6875 42.3125 35.6875 43.375 36.6875L47.3125 40.625C48.6875 42 48.125 44.375 46.3125 44.9375C45.0625 45.375 44.1875 46.75 44.625 48C45.3125 50.9375 49.125 54.5625 51.9375 55.25C53.1875 55.5625 54.625 54.8125 55 53.5625C55.5625 51.75 57.9375 51.1875 59.3125 52.5625L63.25 56.5C64.25 57.5625 64.25 59.25 63.3125 60.375V60.375Z" fill="#4CB454"/>
</svg>
