<?xml version="1.0" standalone="no"?>
<!DOCTYPE svg PUBLIC "-//W3C//DTD SVG 20010904//EN"
 "http://www.w3.org/TR/2001/REC-SVG-20010904/DTD/svg10.dtd">
<svg version="1.0" xmlns="http://www.w3.org/2000/svg"
 width="101.000000pt" height="92.000000pt" viewBox="0 0 101.000000 92.000000"
 preserveAspectRatio="xMidYMid meet">

<g transform="translate(0.000000,92.000000) scale(0.100000,-0.100000)"
fill="#000000" stroke="none">
<path d="M365 884 c-27 -9 -54 -19 -59 -24 -12 -12 3 -33 17 -22 7 4 24 9 39
10 22 1 25 -2 21 -19 -3 -11 -11 -18 -18 -15 -25 9 -78 -9 -86 -31 -7 -18 -5
-21 9 -16 9 3 22 10 28 14 15 12 23 2 17 -22 -3 -10 -14 -19 -24 -19 -11 0
-22 -7 -25 -15 -4 -8 -10 -12 -15 -9 -5 2 -33 -11 -62 -29 -37 -24 -58 -32
-69 -26 -27 15 -67 -48 -45 -71 9 -10 8 -12 -5 -7 -25 9 -31 -25 -26 -136 3
-76 9 -102 33 -150 88 -177 279 -277 473 -247 257 41 430 285 369 520 -8 30
-18 46 -31 48 -17 4 -18 -1 -13 -37 3 -23 1 -39 -4 -35 -5 3 -9 12 -9 19 0 21
-38 42 -86 48 -56 7 -77 -8 -24 -17 23 -3 45 -4 50 -1 4 3 11 -2 14 -11 9 -24
7 -62 -4 -69 -5 -3 -10 1 -10 9 0 17 -27 46 -43 46 -6 0 -2 -7 9 -15 19 -15
19 -15 0 -30 -11 -8 -25 -15 -32 -15 -19 0 -37 28 -30 47 6 15 5 16 -6 5 -19
-19 -1 -40 68 -82 60 -36 70 -53 60 -96 -8 -30 -38 -46 -90 -47 -23 0 -33 -2
-23 -4 21 -5 23 -31 2 -39 -8 -4 -15 -12 -15 -20 0 -21 -60 -84 -80 -84 -25 0
-50 76 -43 128 3 24 1 42 -6 46 -17 11 -14 56 4 56 11 0 15 12 15 49 0 55 -13
73 -30 41 -6 -12 -21 -20 -35 -20 -22 0 -25 4 -25 35 0 34 1 35 38 35 26 0 45
-7 57 -20 10 -11 20 -18 23 -15 13 13 -46 44 -85 45 l-43 0 0 -45 c0 -43 1
-45 29 -45 20 0 35 8 45 22 15 22 16 21 16 -27 -1 -39 -3 -46 -11 -33 -6 12
-22 18 -44 18 l-35 0 0 -48 c0 -41 4 -51 23 -60 18 -9 12 -11 -38 -11 -45 0
-56 2 -42 10 14 8 17 25 17 114 0 89 -3 106 -17 114 -14 8 -15 10 -3 11 8 0
21 9 27 19 13 22 72 38 82 24 12 -19 49 -34 56 -23 4 6 15 8 24 5 24 -7 51 4
51 21 0 8 -9 14 -19 14 -11 0 -23 5 -26 11 -4 6 -13 8 -20 5 -8 -3 -19 2 -25
10 -20 23 -67 17 -86 -11 -20 -30 -34 -32 -34 -5 0 11 6 20 14 20 17 0 27 47
12 54 -6 3 -2 4 9 3 15 -1 20 4 21 24 2 40 13 52 45 45 25 -5 32 -1 48 24 10
17 20 27 24 24 3 -3 11 -3 18 1 8 6 2 13 -17 23 -43 23 -224 26 -289 6z m103
-51 c-6 -8 -25 -21 -42 -30 -21 -10 -27 -11 -18 -2 6 7 12 23 12 34 0 18 5 21
30 17 25 -4 28 -7 18 -19z m-95 -244 c13 0 17 -9 17 -36 l0 -35 -29 31 c-52
55 -130 36 -152 -37 -13 -45 1 -112 29 -133 15 -13 16 -12 3 4 -22 27 6 21 36
-9 19 -19 32 -24 49 -20 21 6 24 12 24 56 0 36 -5 52 -17 59 -14 8 -6 10 35
11 53 0 53 0 38 -22 -9 -12 -16 -41 -16 -65 0 -49 -9 -54 -98 -56 -31 -1 -47
-3 -34 -5 18 -3 22 -10 22 -38 0 -21 -5 -34 -13 -34 -8 0 -19 -22 -27 -50 -12
-46 -15 -49 -30 -35 -10 9 -25 35 -35 58 -9 23 -31 70 -47 105 -26 52 -30 70
-24 109 7 52 24 79 39 64 6 -6 17 1 31 22 31 47 81 69 136 62 25 -3 53 -6 63
-6z m87 -86 c0 -64 -1 -66 -17 -50 -17 17 -22 85 -8 107 16 25 25 4 25 -57z
m120 -63 c0 -12 -17 -12 -45 0 -17 7 -15 9 13 9 17 1 32 -3 32 -9z"/>
<path d="M142 465 c0 -16 2 -22 5 -12 2 9 2 23 0 30 -3 6 -5 -1 -5 -18z"/>
<path d="M160 396 c0 -2 8 -10 18 -17 15 -13 16 -12 3 4 -13 16 -21 21 -21 13z"/>
<path d="M207 349 c7 -7 15 -10 18 -7 3 3 -2 9 -12 12 -14 6 -15 5 -6 -5z"/>
<path d="M560 787 c0 -9 -3 -22 -6 -31 -4 -10 -1 -16 9 -16 22 0 29 29 12 46
-13 14 -15 14 -15 1z"/>
<path d="M700 714 c1 -17 37 -57 43 -47 4 6 -5 21 -18 33 -14 13 -25 19 -25
14z"/>
<path d="M632 694 c2 -8 6 -15 11 -15 4 1 17 1 28 1 18 0 19 2 9 15 -17 20
-52 20 -48 -1z"/>
<path d="M625 590 c3 -5 8 -10 11 -10 2 0 4 5 4 10 0 6 -5 10 -11 10 -5 0 -7
-4 -4 -10z"/>
<path d="M685 580 c-26 -28 -15 -31 12 -3 12 13 19 23 14 23 -4 0 -16 -9 -26
-20z"/>
<path d="M670 501 c0 -11 30 -36 60 -50 21 -10 22 -10 6 1 -11 7 -30 23 -43
35 -13 12 -23 18 -23 14z"/>
<path d="M763 433 c11 -17 -14 -64 -32 -61 -9 2 -22 16 -29 31 -7 15 -18 27
-25 26 -9 0 -9 -2 1 -6 6 -2 12 -10 12 -17 0 -36 85 -65 111 -39 16 16 7 44
-21 62 -13 9 -21 11 -17 4z"/>
<path d="M680 340 c-8 -5 -11 -12 -7 -16 4 -4 13 -2 19 4 15 15 7 24 -12 12z"/>
</g>
</svg>
