<svg width="100" height="100" viewBox="0 0 100 100" fill="none" xmlns="http://www.w3.org/2000/svg">
<circle cx="50" cy="50" r="50" fill="white"/>
<path d="M68.249 45.5465C68.3107 38.3074 62.1451 31.6711 54.505 30.7534C54.353 30.7354 54.1875 30.7079 54.0123 30.6789C53.634 30.6162 53.2429 30.5518 52.8482 30.5518C51.2824 30.5518 50.8638 31.6518 50.7536 32.3078C50.6464 32.9456 50.7486 33.4812 51.0569 33.9004C51.5754 34.6056 52.4879 34.7307 53.2207 34.831C53.4355 34.8607 53.6382 34.8883 53.8078 34.9264C60.6722 36.4602 62.9835 38.8717 64.1131 45.6777C64.1407 45.844 64.1532 46.0489 64.1664 46.2662C64.2157 47.0798 64.3184 48.7725 66.1381 48.7725H66.1383C66.2897 48.7725 66.4526 48.7594 66.6221 48.7335C68.3166 48.476 68.2635 46.9288 68.238 46.1854C68.2308 45.976 68.224 45.778 68.2417 45.6463C68.2465 45.6131 68.2488 45.5798 68.249 45.5465Z" fill="#4CB354"/>
<path d="M52.4042 28.0962C52.6075 28.1108 52.8 28.1249 52.9602 28.1494C64.2321 29.8829 69.416 35.2235 70.8525 46.5836C70.8769 46.7767 70.8808 47.0122 70.8847 47.2616C70.8991 48.1491 70.9286 49.9955 72.9115 50.0338L72.973 50.0344C73.5949 50.0344 74.0895 49.8469 74.4434 49.4766C75.0606 48.831 75.0176 47.8718 74.9828 47.101C74.9744 46.9119 74.9662 46.7338 74.9683 46.5778C75.1117 34.9594 65.0546 24.4238 53.4466 24.0321C53.3984 24.0305 53.3525 24.033 53.3061 24.0395C53.2833 24.0429 53.241 24.047 53.1686 24.047C53.0529 24.047 52.9105 24.037 52.7595 24.0268C52.5769 24.0144 52.3699 24 52.1601 24C50.3115 24 49.96 25.3139 49.9151 26.0972C49.8114 27.9074 51.5626 28.0348 52.4042 28.0962Z" fill="#4CB354"/>
<path d="M70.3086 61.2658C70.0689 61.0827 69.8211 60.8933 69.5891 60.7064C68.3584 59.716 67.0491 58.8031 65.7828 57.9202C65.5201 57.7372 65.2573 57.5539 64.9954 57.3702C63.3734 56.2309 61.9152 55.6773 60.5375 55.6773C58.6819 55.6773 57.064 56.7026 55.7287 58.7244C55.1371 59.6207 54.4194 60.0565 53.5349 60.0565C53.0119 60.0565 52.4176 59.9072 51.7687 59.6127C46.5332 57.2385 42.7947 53.5984 40.6569 48.7935C39.6234 46.4711 39.9585 44.9531 41.7772 43.7176C42.81 43.0166 44.7325 41.7116 44.5963 39.2126C44.4421 36.3747 38.1805 27.8359 35.5423 26.8661C34.4253 26.4553 33.2517 26.4515 32.0477 26.8565C29.0149 27.8761 26.8384 29.6666 25.7531 32.0343C24.7044 34.322 24.7517 37.0083 25.8901 39.8026C29.181 47.8817 33.8078 54.9256 39.6426 60.7383C45.3537 66.4284 52.3732 71.0894 60.5059 74.5912C61.2389 74.9066 62.0078 75.0787 62.5693 75.2042C62.7606 75.2473 62.9258 75.2839 63.0462 75.3169C63.1124 75.335 63.1806 75.3447 63.2491 75.3453L63.3133 75.3456C63.3135 75.3456 63.3133 75.3456 63.3136 75.3456C67.1387 75.3456 71.7316 71.8503 73.1422 67.8655C74.378 64.3762 72.1216 62.6515 70.3086 61.2658Z" fill="#4CB354"/>
<path d="M54.0961 37.3249C53.4412 37.3415 52.0783 37.3753 51.6001 38.7634C51.3764 39.4121 51.4032 39.9753 51.6798 40.4374C52.0858 41.1154 52.8636 41.3232 53.5712 41.4372C56.137 41.8489 57.4548 43.2678 57.7183 45.902C57.8408 47.1303 58.6679 47.9881 59.7299 47.9881H59.7301C59.8085 47.9881 59.8887 47.9834 59.9686 47.9737C61.2459 47.8217 61.8651 46.8833 61.8091 45.1848C61.8295 43.4121 60.9018 41.3996 59.3239 39.7965C57.7407 38.1886 55.8321 37.283 54.0961 37.3249Z" fill="#4CB354"/>
</svg>
