<svg width="40" height="40" viewBox="0 0 40 40" fill="none" xmlns="http://www.w3.org/2000/svg">
<g clip-path="url(#clip0_1_3417)">
<path d="M20 40C22.3978 40 24.4627 38.5516 25.3687 36.4844H14.6313C15.5374 38.5516 17.6023 40 20 40Z" fill="#2E9047"/>
<path d="M32.1095 19.3642V16.7969C32.1095 11.342 28.4836 6.71867 23.5157 5.20859V3.51562C23.5157 1.57711 21.9386 0 20.0001 0C18.0616 0 16.4845 1.57711 16.4845 3.51562V5.20859C11.5165 6.71867 7.89072 11.342 7.89072 16.7969V19.3642C7.89072 24.1558 6.06431 28.6992 2.74798 32.1577C2.42298 32.4966 2.33165 32.9966 2.51587 33.4285C2.70009 33.8604 3.12431 34.1406 3.59384 34.1406H36.4063C36.8759 34.1406 37.3 33.8604 37.4842 33.4285C37.6684 32.9966 37.5771 32.4966 37.2522 32.1577C33.9359 28.6992 32.1095 24.1557 32.1095 19.3642ZM21.172 4.74438C20.7863 4.70719 20.3954 4.6875 20.0001 4.6875C19.6048 4.6875 19.2139 4.70719 18.8282 4.74438V3.51562C18.8282 2.86945 19.3539 2.34375 20.0001 2.34375C20.6463 2.34375 21.172 2.86945 21.172 3.51562V4.74438Z" fill="#2E9047"/>
<path d="M35.2345 16.7973C35.2345 17.4445 35.7592 17.9692 36.4063 17.9692C37.0535 17.9692 37.5782 17.4445 37.5782 16.7973C37.5782 12.102 35.7498 7.68771 32.4297 4.36763C31.9721 3.91005 31.2301 3.90997 30.7724 4.36763C30.3148 4.82528 30.3148 5.56724 30.7724 6.02489C33.6499 8.90231 35.2345 12.728 35.2345 16.7973Z" fill="#2E9047"/>
<path d="M3.59375 17.9691C4.24094 17.9691 4.76562 17.4445 4.76562 16.7973C4.76562 12.728 6.35031 8.90234 9.22766 6.02492C9.68531 5.56727 9.68531 4.82531 9.22766 4.36766C8.77008 3.91 8.02805 3.91 7.57039 4.36766C4.25031 7.68773 2.42188 12.102 2.42188 16.7973C2.42188 17.4445 2.94656 17.9691 3.59375 17.9691Z" fill="#2E9047"/>
</g>
<defs>
<clipPath id="clip0_1_3417">
<rect width="40" height="40" fill="white"/>
</clipPath>
</defs>
</svg>
