<svg width="28" height="24" viewBox="0 0 28 24" fill="none" xmlns="http://www.w3.org/2000/svg">
<path d="M11.0295 23.8277C16.6539 23.8277 21.2134 19.2682 21.2134 13.6438C21.2134 8.01942 16.6539 3.45996 11.0295 3.45996C5.40517 3.45996 0.845703 8.01942 0.845703 13.6438C0.845703 19.2682 5.40517 23.8277 11.0295 23.8277Z" fill="#A6E1FF"/>
<path d="M11.1447 21.5155L11.0155 21.2954C9.04244 17.9337 3.79925 10.7995 3.74629 10.7279L3.67065 10.6251L5.45698 8.85976L11.1115 12.8082C14.6718 8.18822 17.9932 5.01503 20.1598 3.16201C22.5299 1.13499 24.0726 0.201817 24.0882 0.192875L24.1233 0.171875H27.1534L26.8639 0.429644C19.42 7.05999 11.3515 21.1521 11.2711 21.2937L11.1447 21.5155Z" fill="#007AB9"/>
</svg>
