<svg width="25" height="25" viewBox="0 0 25 25" fill="none" xmlns="http://www.w3.org/2000/svg">
<path d="M19.7583 15.4859C19.2464 14.953 18.6291 14.668 17.9748 14.668C17.3258 14.668 16.7032 14.9477 16.1703 15.4806L14.5029 17.1427C14.3657 17.0688 14.2286 17.0002 14.0967 16.9316C13.9067 16.8366 13.7273 16.7469 13.5743 16.652C12.0125 15.66 10.5931 14.3673 9.23179 12.6946C8.57224 11.861 8.12902 11.1592 7.80716 10.4469C8.23982 10.0512 8.64083 9.63959 9.03129 9.24386C9.17903 9.09612 9.32677 8.94311 9.47451 8.79537C10.5826 7.68732 10.5826 6.25213 9.47451 5.14408L8.03404 3.70362C7.87048 3.54005 7.70163 3.37121 7.54334 3.20236C7.22675 2.87522 6.89434 2.53753 6.55137 2.22095C6.03956 1.71441 5.42749 1.44531 4.78377 1.44531C4.14005 1.44531 3.51743 1.71441 2.98979 2.22095C2.98451 2.22622 2.98451 2.22622 2.97923 2.2315L1.18525 4.04131C0.509868 4.71669 0.124689 5.53982 0.0402664 6.49485C-0.0863677 8.03556 0.367404 9.47075 0.715648 10.41C1.57043 12.7157 2.84732 14.8527 4.75211 17.1427C7.06318 19.9022 9.84386 22.0814 13.0203 23.6168C14.2338 24.192 15.8537 24.8726 17.6635 24.9887C17.7743 24.994 17.8904 24.9993 17.9959 24.9993C19.2148 24.9993 20.2384 24.5613 21.0404 23.6907C21.0457 23.6802 21.0563 23.6749 21.0615 23.6643C21.3359 23.3319 21.6525 23.0312 21.9849 22.7093C22.2118 22.493 22.444 22.2661 22.6708 22.0286C23.1932 21.4852 23.4676 20.852 23.4676 20.203C23.4676 19.5487 23.1879 18.9208 22.655 18.3932L19.7583 15.4859ZM21.6472 21.0419C21.6419 21.0419 21.6419 21.0472 21.6472 21.0419C21.4414 21.2636 21.2304 21.4641 21.0035 21.6857C20.6605 22.0128 20.3123 22.3558 19.9851 22.7409C19.4522 23.3108 18.8243 23.5799 18.0012 23.5799C17.9221 23.5799 17.8376 23.5799 17.7585 23.5746C16.1914 23.4744 14.7351 22.8623 13.6429 22.3399C10.6564 20.8942 8.03404 18.8417 5.85488 16.2404C4.05562 14.0718 2.8526 12.0667 2.05586 9.91397C1.56515 8.60014 1.38575 7.57651 1.4649 6.61093C1.51766 5.99359 1.7551 5.48178 2.19305 5.04383L3.99231 3.24457C4.25085 3.00186 4.52522 2.86995 4.79432 2.86995C5.12674 2.86995 5.39583 3.07045 5.56468 3.2393C5.56996 3.24457 5.57523 3.24985 5.58051 3.25513C5.90237 3.55588 6.2084 3.86719 6.53026 4.1996C6.69383 4.36845 6.86268 4.5373 7.03152 4.71142L8.47199 6.15188C9.03129 6.71118 9.03129 7.22827 8.47199 7.78757C8.31897 7.94059 8.17123 8.0936 8.01821 8.24134C7.575 8.69512 7.15288 9.11723 6.69383 9.52879C6.68328 9.53934 6.67273 9.54462 6.66745 9.55517C6.21368 10.0089 6.2981 10.4522 6.39308 10.7529C6.39835 10.7687 6.40363 10.7846 6.40891 10.8004C6.78353 11.708 7.31117 12.5627 8.11319 13.5811L8.11847 13.5864C9.57476 15.3803 11.1102 16.7786 12.8039 17.8497C13.0203 17.9869 13.2419 18.0977 13.4529 18.2032C13.6429 18.2982 13.8223 18.3879 13.9753 18.4829C13.9964 18.4934 14.0175 18.5093 14.0386 18.5198C14.218 18.6095 14.3869 18.6517 14.561 18.6517C14.9989 18.6517 15.2733 18.3773 15.363 18.2876L17.1675 16.4831C17.3469 16.3037 17.6319 16.0874 17.9643 16.0874C18.2914 16.0874 18.5605 16.2932 18.7241 16.4726C18.7293 16.4778 18.7293 16.4778 18.7346 16.4831L21.6419 19.3904C22.1854 19.9286 22.1854 20.4826 21.6472 21.0419Z" fill="#FEFEFE"/>
<path d="M13.5111 5.94627C14.8936 6.17843 16.1493 6.83271 17.1519 7.83523C18.1544 8.83775 18.8034 10.0935 19.0408 11.476C19.0989 11.8242 19.3996 12.0669 19.7426 12.0669C19.7848 12.0669 19.8217 12.0616 19.8639 12.0564C20.2544 11.993 20.5129 11.6237 20.4496 11.2332C20.1647 9.56062 19.3732 8.03573 18.1649 6.82743C16.9566 5.61913 15.4318 4.82767 13.7591 4.54274C13.3687 4.47942 13.0046 4.73797 12.936 5.12315C12.8674 5.50832 13.1207 5.88295 13.5111 5.94627Z" fill="#FEFEFE"/>
<path d="M24.9715 11.028C24.5019 8.27374 23.2039 5.76744 21.2094 3.77295C19.2149 1.77846 16.7086 0.480461 13.9543 0.0108597C13.5692 -0.0577338 13.2051 0.206087 13.1365 0.591266C13.0732 0.981721 13.3317 1.34579 13.7222 1.41439C16.181 1.83122 18.4235 2.99731 20.2069 4.77547C21.9903 6.5589 23.1511 8.80138 23.568 11.2602C23.626 11.6084 23.9268 11.8511 24.2697 11.8511C24.3119 11.8511 24.3489 11.8459 24.3911 11.8406C24.7763 11.7826 25.0401 11.4132 24.9715 11.028Z" fill="#FEFEFE"/>
</svg>
