<svg width="15" height="15" viewBox="0 0 15 15" fill="none" xmlns="http://www.w3.org/2000/svg">
<g clip-path="url(#clip0_1_1566)">
<path d="M5.625 15H0.625C0.45924 15 0.300269 14.9342 0.183058 14.8169C0.065848 14.6997 0 14.5408 0 14.375C0 14.2092 0.065848 14.0503 0.183058 13.9331C0.300269 13.8158 0.45924 13.75 0.625 13.75H5.625C5.79076 13.75 5.94973 13.8158 6.06694 13.9331C6.18415 14.0503 6.25 14.2092 6.25 14.375C6.25 14.5408 6.18415 14.6997 6.06694 14.8169C5.94973 14.9342 5.79076 15 5.625 15Z" fill="#32AA3A"/>
<path d="M4.375 12.5H0.625C0.45924 12.5 0.300269 12.4342 0.183058 12.3169C0.065848 12.1997 0 12.0408 0 11.875C0 11.7092 0.065848 11.5503 0.183058 11.4331C0.300269 11.3158 0.45924 11.25 0.625 11.25H4.375C4.54076 11.25 4.69973 11.3158 4.81694 11.4331C4.93415 11.5503 5 11.7092 5 11.875C5 12.0408 4.93415 12.1997 4.81694 12.3169C4.69973 12.4342 4.54076 12.5 4.375 12.5Z" fill="#32AA3A"/>
<path d="M3.125 10H0.625C0.45924 10 0.300269 9.93415 0.183058 9.81694C0.065848 9.69973 0 9.54076 0 9.375C0 9.20924 0.065848 9.05027 0.183058 8.93306C0.300269 8.81585 0.45924 8.75 0.625 8.75H3.125C3.29076 8.75 3.44973 8.81585 3.56694 8.93306C3.68415 9.05027 3.75 9.20924 3.75 9.375C3.75 9.54076 3.68415 9.69973 3.56694 9.81694C3.44973 9.93415 3.29076 10 3.125 10Z" fill="#32AA3A"/>
<path d="M8.12499 14.9722C7.95923 14.9795 7.79733 14.9208 7.6749 14.8088C7.55248 14.6968 7.47955 14.5407 7.47218 14.375C7.4648 14.2092 7.52357 14.0473 7.63557 13.9249C7.74756 13.8025 7.9036 13.7295 8.06936 13.7222C9.25215 13.6139 10.3796 13.1709 11.3197 12.445C12.2598 11.7191 12.9736 10.7404 13.3774 9.62342C13.7813 8.50647 13.8586 7.29756 13.6001 6.13829C13.3417 4.97902 12.7583 3.91738 11.9183 3.07772C11.0782 2.23807 10.0163 1.65516 8.85694 1.39727C7.69755 1.13938 6.48867 1.21718 5.37191 1.62157C4.25514 2.02596 3.27673 2.7402 2.55125 3.68061C1.82578 4.62103 1.38329 5.7487 1.27561 6.93153C1.2607 7.09663 1.1808 7.24904 1.05351 7.35523C0.926223 7.46143 0.761961 7.5127 0.596864 7.49779C0.431767 7.48287 0.279358 7.40297 0.173165 7.27568C0.066973 7.14839 0.0156957 6.98413 0.0306142 6.81903C0.20492 4.8961 1.11412 3.11447 2.56894 1.84501C4.02377 0.575554 5.91214 -0.0839244 7.84096 0.00385535C9.76978 0.0916351 11.5904 0.91991 12.9239 2.31627C14.2575 3.71262 15.0011 5.56947 15 7.50028C15.0096 9.37425 14.3134 11.1832 13.0499 12.5672C11.7865 13.9512 10.0483 14.8089 8.18124 14.9697C8.16249 14.9715 8.14311 14.9722 8.12499 14.9722Z" fill="#32AA3A"/>
<path d="M7.5 3.75C7.33424 3.75 7.17527 3.81585 7.05806 3.93306C6.94085 4.05027 6.875 4.20924 6.875 4.375V7.5C6.87504 7.66575 6.94091 7.82469 7.05813 7.94187L8.93313 9.81687C9.051 9.93072 9.20888 9.99372 9.37275 9.9923C9.53662 9.99087 9.69338 9.92514 9.80926 9.80926C9.92514 9.69338 9.99087 9.53662 9.9923 9.37275C9.99372 9.20888 9.93072 9.051 9.81688 8.93313L8.125 7.24125V4.375C8.125 4.20924 8.05915 4.05027 7.94194 3.93306C7.82473 3.81585 7.66576 3.75 7.5 3.75Z" fill="#32AA3A"/>
</g>
<defs>
<clipPath id="clip0_1_1566">
<rect width="15" height="15" fill="white"/>
</clipPath>
</defs>
</svg>
