<svg width="70" height="71" viewBox="0 0 70 71" fill="none" xmlns="http://www.w3.org/2000/svg">
<path d="M24.3656 51.4693L18.5323 45.636C18.234 45.3303 17.8146 45.1742 17.389 45.2102C16.9662 45.2406 16.5775 45.4535 16.3243 45.7935L0.291792 67.6681C-0.191499 68.3124 -0.0609351 69.2265 0.583408 69.7097C1.10197 70.0985 1.81481 70.0985 2.33337 69.7097L24.2079 53.6684C24.8576 53.1925 24.9986 52.2799 24.5227 51.6302C24.4785 51.5701 24.43 51.5133 24.3772 51.4605L24.3656 51.4693Z" fill="#CFD8DC"/>
<path d="M43.3233 41.2608L28.7403 26.6779C26.2869 24.7678 23.2303 23.8003 20.1246 23.9508C16.0592 23.8086 12.1095 25.3184 9.17571 28.1361C6.80737 30.5044 7.05237 34.1647 9.90481 39.018C12.5987 43.242 15.7802 47.1342 19.3837 50.6144C25.1849 56.4127 32.5085 62.4383 37.8459 62.4383C39.3502 62.4764 40.8033 61.8917 41.8621 60.8224C47.9344 54.7531 46.4207 44.3613 43.3233 41.2608Z" fill="#D32F2F"/>
<path d="M54.9898 29.594L40.4067 15.0109C39.8373 14.4417 38.9142 14.4417 38.3447 15.0109L26.6783 26.6773C24.7708 28.5848 24.9283 32.8022 31.0532 38.9475C35.0518 42.9461 38.2397 44.4015 40.503 44.4015C41.5505 44.4385 42.5681 44.0492 43.3233 43.3224L54.9897 31.656C55.5591 31.0866 55.5591 30.1635 54.9898 29.594Z" fill="#F44336"/>
<path d="M69.8888 25.695C69.6633 25.1496 69.1313 24.7939 68.5413 24.7937C65.3797 24.7937 58.4381 21.3754 53.5324 16.4698C48.6268 11.5641 45.2085 4.62538 45.2085 1.46095C45.2099 0.655556 44.5581 0.00150614 43.7527 2.26288e-06C43.3645 -0.000681317 42.9919 0.153534 42.7177 0.42847C36.7619 6.3871 34.9012 16.5485 44.176 25.8233C47.7045 29.7445 52.6711 32.0689 57.9424 32.2661C62.3268 32.2158 66.511 30.4223 69.5709 27.2816C69.9875 26.8655 70.1128 26.2396 69.8888 25.695Z" fill="#D32F2F"/>
<path d="M60.8241 9.17863C54.6467 3.00412 49.0615 0.00292969 43.7503 0.00292969C42.945 0.00292969 42.292 0.655886 42.292 1.46128C42.292 5.81582 46.4103 13.4748 51.4677 18.5351C56.5251 23.5953 64.1899 27.7108 68.5415 27.7108C69.3469 27.7108 69.9998 27.0578 69.9998 26.2524C69.9998 20.9384 66.9986 15.353 60.8241 9.17863Z" fill="#F44336"/>
</svg>
