<svg width="72" height="72" viewBox="0 0 72 72" fill="none" xmlns="http://www.w3.org/2000/svg">
<path d="M36 69.75C54.6396 69.75 69.75 54.6396 69.75 36C69.75 17.3604 54.6396 2.25 36 2.25C17.3604 2.25 2.25 17.3604 2.25 36C2.25 54.6396 17.3604 69.75 36 69.75Z" fill="#FF5A54"/>
<path fill-rule="evenodd" clip-rule="evenodd" d="M69.6504 38.6156C68.3821 55.1672 55.1749 68.3772 38.6245 69.65L17.8966 48.9222C17.3693 48.4869 17.0322 47.8287 17.0322 47.094V25.2094L22.935 28.6229L17.6399 23.3278C18.0738 22.8433 18.7051 22.5371 19.4034 22.5371H52.5973C53.2956 22.5371 53.9269 22.8425 54.3609 23.3262L69.6504 38.6156Z" fill="#DB3A3C"/>
<path fill-rule="evenodd" clip-rule="evenodd" d="M54.9685 25.207L36.4956 35.8918C36.2036 36.0659 35.8287 36.0808 35.5171 35.899L17.0322 25.2094V47.094C17.0322 48.4 18.0975 49.4645 19.4034 49.4645H52.5973C53.9031 49.4645 54.9685 48.4 54.9685 47.094V25.207ZM19.4034 22.5371H52.5973C53.2956 22.5371 53.9269 22.8425 54.3609 23.3262L36.0023 33.9463L17.6397 23.3277C18.0738 22.8433 18.7051 22.5371 19.4034 22.5371Z" fill="white"/>
</svg>
