<svg width="70" height="70" viewBox="0 0 70 70" fill="none" xmlns="http://www.w3.org/2000/svg">
<path d="M70 35C70 34.5748 69.9923 34.1512 69.9774 33.7297C69.3087 14.9882 53.9048 0 35 0C16.0952 0 0.69125 14.9882 0.0226953 33.7297C0.00765625 34.1512 0 34.5748 0 35C0 54.33 17.9788 68.7299 35 68.7299C52.3296 68.7299 70 54.33 70 35Z" fill="#FF5876"/>
<path d="M35 67.4604C16.0955 67.4604 0.694258 52.4717 0.0254297 33.7305C0.0102539 34.1524 0 34.5753 0 35.0007C0 54.3307 15.67 70.0007 35 70.0007C54.33 70.0007 70 54.3307 70 35.0007C70 34.5753 69.9897 34.1524 69.9747 33.7306C69.3057 52.4719 53.9045 67.4604 35 67.4604Z" fill="#E6485D"/>
<path d="M64.1779 33.7303C63.5129 18.1898 50.7037 5.79492 34.9995 5.79492C19.2953 5.79492 6.48615 18.1898 5.82115 33.7303C5.8031 34.1515 5.82101 62.3484 34.9995 62.3484C64.178 62.3484 64.1959 34.1515 64.1779 33.7303Z" fill="#E4EEF9"/>
<path d="M35.0005 61.6659C19.2964 61.6659 6.48932 49.2707 5.82404 33.7305C5.806 34.1518 5.79492 34.5748 5.79492 35.0006C5.79492 51.1304 18.8707 64.2062 35.0005 64.2062C51.1303 64.2062 64.2061 51.1305 64.2061 35.0007C64.2061 34.575 64.1949 34.1518 64.177 33.7306C63.5117 49.2709 50.7046 61.6659 35.0005 61.6659Z" fill="#D5E0F2"/>
<path d="M45.6087 24.7524C44.7762 23.9314 43.4359 23.9405 42.615 24.7729L37.6475 29.8092L38.1466 32.2068L40.467 32.9798L45.6294 27.7461C46.4502 26.9138 46.4411 25.5734 45.6087 24.7524Z" fill="#405B6C"/>
<path d="M32.0041 30.0019L20.7382 19.9623C19.8652 19.1844 18.5272 19.2615 17.7494 20.1344C16.9716 21.0073 17.0486 22.3455 17.9215 23.1233L29.4093 33.3605L31.8031 32.562L32.0041 30.0019Z" fill="#405B6C"/>
<path d="M49.9899 48.6492C49.7495 48.6492 49.5081 48.5678 49.3095 48.4012L35.9011 37.1386C35.4536 36.7626 35.3954 36.0948 35.7714 35.6474C36.1474 35.1996 36.8149 35.1415 37.2627 35.5176L50.6711 46.7804C51.1186 47.1563 51.1768 47.8241 50.8009 48.2716C50.5916 48.5208 50.2917 48.6492 49.9899 48.6492Z" fill="#86DCFF"/>
<path d="M29.4082 33.3616L31.3852 35.1233L33.924 34.2606L33.7863 31.592L32.0031 30.0029C30.7624 30.7485 29.8233 31.943 29.4082 33.3616Z" fill="#2D4456"/>
<path d="M37.6476 29.8096L35.9668 31.5136V34.8586H38.6145L40.4673 32.9802C39.9582 31.6026 38.9428 30.4716 37.6476 29.8096Z" fill="#2D4456"/>
<path d="M38.3891 33.7292C37.8748 32.3579 36.5518 31.3818 35.0008 31.3818C33.4499 31.3818 32.1269 32.3579 31.6125 33.7292C31.4643 34.1244 31.6027 37.347 35.0008 37.347C38.399 37.347 38.5373 34.1244 38.3891 33.7292Z" fill="#FF5876"/>
<path d="M34.9996 36.0779C33.4486 36.0779 32.1261 35.1018 31.6118 33.7305C31.4635 34.1257 31.3818 34.5535 31.3818 35.0006C31.3818 36.9986 33.0015 38.6182 34.9994 38.6182C36.9974 38.6182 38.617 36.9985 38.617 35.0006C38.617 34.5535 38.5354 34.1257 38.3872 33.7305C37.873 35.1016 36.5505 36.0779 34.9996 36.0779Z" fill="#E6485D"/>
<path d="M36.0595 12.7927V9.50779C36.0595 8.92209 35.5847 8.44727 34.999 8.44727C34.4133 8.44727 33.9385 8.92209 33.9385 9.50779V12.7927C33.9385 13.3784 34.4132 13.8533 34.999 13.8533C35.5848 13.8533 36.0595 13.3784 36.0595 12.7927Z" fill="#405B6C"/>
<path d="M33.9385 57.207V60.492C33.9385 61.0777 34.4132 61.5525 34.999 61.5525C35.5848 61.5525 36.0595 61.0777 36.0595 60.492V57.207C36.0595 56.6213 35.5847 56.1465 34.999 56.1465C34.4133 56.1465 33.9385 56.6213 33.9385 57.207Z" fill="#405B6C"/>
<path d="M60.492 36.0595C61.0778 36.0595 61.5525 35.5847 61.5525 34.999C61.5525 34.4133 61.0777 33.9385 60.492 33.9385H57.207C56.6213 33.9385 56.1465 34.4133 56.1465 34.999C56.1465 35.5847 56.6213 36.0595 57.207 36.0595H60.492Z" fill="#405B6C"/>
<path d="M9.50779 33.9385C8.92195 33.9385 8.44727 34.4133 8.44727 34.999C8.44727 35.5847 8.92195 36.0595 9.50779 36.0595H12.7927C13.3786 36.0595 13.8533 35.5847 13.8533 34.999C13.8533 34.4133 13.3784 33.9385 12.7927 33.9385H9.50779Z" fill="#405B6C"/>
</svg>
