<svg width="70" height="70" viewBox="0 0 70 70" fill="none" xmlns="http://www.w3.org/2000/svg">
<g clip-path="url(#clip0_1_64)">
<path d="M35 70C54.33 70 70 54.33 70 35C70 15.67 54.33 0 35 0C15.67 0 0 15.67 0 35C0 54.33 15.67 70 35 70Z" fill="#EF5261"/>
<path d="M31.627 38.335C36.434 43.142 41.1453 45.0921 42.8423 43.3952L45.1725 41.0655C45.9434 40.2947 46.9888 39.8617 48.0789 39.8617C49.169 39.8617 50.2144 40.2947 50.9853 41.0655L56.2167 46.2969C56.9875 47.0677 57.4205 48.1132 57.4205 49.2033C57.4205 50.2934 56.9875 51.3388 56.2167 52.1096L52.1408 56.1855C48.2897 60.0366 36.8994 54.896 25.9827 43.9798C20.5271 38.5214 16.9489 33.3803 14.6361 28.5459C12.3234 23.7115 11.8547 19.7461 13.7792 17.8217L17.855 13.7458C18.6259 12.975 19.6713 12.542 20.7614 12.542C21.8515 12.542 22.8969 12.975 23.6678 13.7458L28.8992 18.9756C29.67 19.7464 30.103 20.7919 30.103 21.8819C30.103 22.972 29.67 24.0175 28.8992 24.7883L26.5673 27.124C24.8703 28.8193 26.82 33.5301 31.627 38.335Z" fill="#EEEFEE"/>
</g>
<defs>
<clipPath id="clip0_1_64">
<rect width="70" height="70" fill="white"/>
</clipPath>
</defs>
</svg>
