<svg width="70" height="70" viewBox="0 0 70 70" fill="none" xmlns="http://www.w3.org/2000/svg">
<g clip-path="url(#clip0_1_82)">
<path d="M35.0088 0H34.9912C15.6931 0 0 15.6975 0 35C0 42.6562 2.4675 49.7525 6.66313 55.5144L2.30125 68.5169L15.7544 64.2163C21.2887 67.8825 27.8906 70 35.0088 70C54.3069 70 70 54.2981 70 35C70 15.7019 54.3069 0 35.0088 0Z" fill="#4CAF50"/>
<path d="M55.3744 49.4241C54.53 51.8084 51.1788 53.7859 48.5057 54.3634C46.6769 54.7528 44.2882 55.0634 36.2469 51.7297C25.9613 47.4684 19.3375 37.0166 18.8213 36.3384C18.3269 35.6603 14.665 30.8041 14.665 25.7816C14.665 20.7591 17.2157 18.3134 18.2438 17.2634C19.0882 16.4016 20.4838 16.0078 21.8225 16.0078C22.2557 16.0078 22.645 16.0297 22.995 16.0472C24.0232 16.0909 24.5394 16.1522 25.2175 17.7753C26.0619 19.8097 28.1182 24.8322 28.3632 25.3484C28.6125 25.8647 28.8619 26.5647 28.5119 27.2428C28.1838 27.9428 27.895 28.2534 27.3788 28.8484C26.8625 29.4434 26.3725 29.8984 25.8563 30.5372C25.3838 31.0928 24.85 31.6878 25.445 32.7159C26.04 33.7222 28.0963 37.0778 31.1238 39.7728C35.0307 43.2509 38.1982 44.3622 39.3313 44.8347C40.1757 45.1847 41.1819 45.1016 41.7988 44.4453C42.5819 43.6009 43.5488 42.2009 44.5332 40.8228C45.2332 39.8341 46.1169 39.7116 47.0444 40.0616C47.9894 40.3897 52.99 42.8616 54.0182 43.3734C55.0463 43.8897 55.7244 44.1347 55.9738 44.5678C56.2188 45.0009 56.2188 47.0353 55.3744 49.4241Z" fill="#FAFAFA"/>
</g>
<defs>
<clipPath id="clip0_1_82">
<rect width="70" height="70" fill="white"/>
</clipPath>
</defs>
</svg>
