<svg width="40" height="40" viewBox="0 0 40 40" fill="none" xmlns="http://www.w3.org/2000/svg">
<g clip-path="url(#clip0_1_3444)">
<path d="M27.4478 12.0047V5.0943C27.4478 2.28546 25.1624 0 22.3532 0H5.09399C2.28516 0 0 2.28546 0 5.0943V16.6345C0 19.0405 1.67633 21.062 3.92212 21.593V24.4797C3.92212 24.9536 4.20776 25.3809 4.64569 25.5624C4.79065 25.6226 4.94293 25.6516 5.09399 25.6516C5.39886 25.6516 5.69855 25.5325 5.92285 25.3082L9.50195 21.7291H10.2087V19.4427C10.2087 15.3412 13.5452 12.0047 17.6465 12.0047H27.4478Z" fill="#2E9047"/>
<path d="M34.9055 14.3484H17.6462C14.8374 14.3484 12.5522 16.6336 12.5522 19.4427V30.983C12.5522 33.7921 14.8374 36.0773 17.6462 36.0773H30.4975L34.0766 39.6567C34.3009 39.881 34.6006 40 34.9058 40C35.0565 40 35.2088 39.971 35.3538 39.9109C35.7917 39.7293 36.0773 39.3021 36.0773 38.8281V35.9415C38.3234 35.4108 39.9998 33.389 39.9998 30.983V19.4427C39.9998 16.6336 37.7143 14.3484 34.9055 14.3484ZM31.265 23.2678L25.7175 28.8153C25.4886 29.0442 25.1887 29.1583 24.889 29.1583C24.589 29.1583 24.289 29.0442 24.0604 28.8153L21.2864 26.0416C20.8286 25.5841 20.8286 24.8419 21.2864 24.3842C21.7438 23.9267 22.486 23.9267 22.9435 24.3842L24.889 26.3293L29.6076 21.6104C30.0654 21.153 30.8073 21.153 31.265 21.6104C31.7228 22.0682 31.7228 22.8104 31.265 23.2678Z" fill="#2E9047"/>
</g>
<defs>
<clipPath id="clip0_1_3444">
<rect width="40" height="40" fill="white"/>
</clipPath>
</defs>
</svg>
