<svg width="30" height="22" viewBox="0 0 30 22" fill="none" xmlns="http://www.w3.org/2000/svg">
<path d="M20.8191 8.75H1.38794C0.621406 8.75 0 9.58947 0 10.625C0 11.6605 0.621406 12.5 1.38794 12.5H20.8191C21.5856 12.5 22.207 11.6605 22.207 10.625C22.207 9.58947 21.5856 8.75 20.8191 8.75Z" fill="black"/>
<path d="M1.875 3.75H28.125C29.1605 3.75 30 2.91053 30 1.875C30 0.839473 29.1605 0 28.125 0H1.875C0.839473 0 0 0.839473 0 1.875C0 2.91053 0.839473 3.75 1.875 3.75Z" fill="black"/>
<path d="M11.7554 17.4805H0.783691C0.350873 17.4805 0 18.3199 0 19.3555C0 20.391 0.350873 21.2305 0.783691 21.2305H11.7554C12.1882 21.2305 12.5391 20.391 12.5391 19.3555C12.5391 18.3199 12.1882 17.4805 11.7554 17.4805Z" fill="black"/>
</svg>
