<svg width="30" height="30" viewBox="0 0 30 30" fill="none" xmlns="http://www.w3.org/2000/svg">
<path d="M21.0628 0H8.93716C4.00919 0 0 4.00919 0 8.93716V21.0628C0 25.9908 4.00919 30 8.93716 30H21.0628C25.9908 30 30 25.9908 30 21.0628V8.93716C29.9999 4.00919 25.9908 0 21.0628 0ZM26.982 21.0628C26.982 24.3319 24.3319 26.982 21.0628 26.982H8.93716C5.66813 26.982 3.018 24.3319 3.018 21.0628V8.93716C3.018 5.66807 5.66813 3.018 8.93716 3.018H21.0628C24.3319 3.018 26.982 5.66807 26.982 8.93716V21.0628Z" fill="url(#paint0_linear_1_4162)"/>
<path d="M15.0003 7.24023C10.7219 7.24023 7.24121 10.7209 7.24121 14.9992C7.24121 19.2775 10.7219 22.7583 15.0003 22.7583C19.2786 22.7583 22.7593 19.2776 22.7593 14.9992C22.7593 10.7209 19.2786 7.24023 15.0003 7.24023ZM15.0003 19.7404C12.3818 19.7404 10.2592 17.6177 10.2592 14.9993C10.2592 12.3809 12.3819 10.2582 15.0003 10.2582C17.6187 10.2582 19.7413 12.3809 19.7413 14.9993C19.7413 17.6177 17.6187 19.7404 15.0003 19.7404Z" fill="url(#paint1_linear_1_4162)"/>
<path d="M22.7743 9.15792C23.8011 9.15792 24.6335 8.32551 24.6335 7.29869C24.6335 6.27186 23.8011 5.43945 22.7743 5.43945C21.7474 5.43945 20.915 6.27186 20.915 7.29869C20.915 8.32551 21.7474 9.15792 22.7743 9.15792Z" fill="url(#paint2_linear_1_4162)"/>
<defs>
<linearGradient id="paint0_linear_1_4162" x1="15" y1="29.9127" x2="15" y2="0.233015" gradientUnits="userSpaceOnUse">
<stop stop-color="#E09B3D"/>
<stop offset="0.3" stop-color="#C74C4D"/>
<stop offset="0.6" stop-color="#C21975"/>
<stop offset="1" stop-color="#7024C4"/>
</linearGradient>
<linearGradient id="paint1_linear_1_4162" x1="15.0003" y1="29.912" x2="15.0003" y2="0.232318" gradientUnits="userSpaceOnUse">
<stop stop-color="#E09B3D"/>
<stop offset="0.3" stop-color="#C74C4D"/>
<stop offset="0.6" stop-color="#C21975"/>
<stop offset="1" stop-color="#7024C4"/>
</linearGradient>
<linearGradient id="paint2_linear_1_4162" x1="22.7743" y1="29.9122" x2="22.7743" y2="0.232515" gradientUnits="userSpaceOnUse">
<stop stop-color="#E09B3D"/>
<stop offset="0.3" stop-color="#C74C4D"/>
<stop offset="0.6" stop-color="#C21975"/>
<stop offset="1" stop-color="#7024C4"/>
</linearGradient>
</defs>
</svg>
