<svg width="25" height="20" viewBox="0 0 28 24" fill="none" xmlns="http://www.w3.org/2000/svg">
<path d="M11.0295 23.8288C16.6539 23.8288 21.2134 19.2693 21.2134 13.6449C21.2134 8.02052 16.6539 3.46106 11.0295 3.46106C5.40517 3.46106 0.845703 8.02052 0.845703 13.6449C0.845703 19.2693 5.40517 23.8288 11.0295 23.8288Z" fill="#B0EF8F"/>
<path d="M11.1449 21.5156L11.0158 21.2955C9.04269 17.9338 3.79949 10.7997 3.74653 10.728L3.6709 10.6253L5.45723 8.85988L11.1118 12.8083C14.672 8.18834 17.9935 5.01515 20.1601 3.16213C22.5301 1.13511 24.0729 0.20194 24.0884 0.192997L24.1235 0.171997H27.1536L26.8642 0.429766C19.4202 7.06011 11.3517 21.1523 11.2713 21.2938L11.1449 21.5156Z" fill="#009045"/>
</svg>
