<svg width="19" height="24" viewBox="0 0 19 24" fill="none" xmlns="http://www.w3.org/2000/svg">
<path d="M9.21553 0C6.77142 0 4.42741 0.970919 2.69917 2.69917C0.970919 4.42741 0 6.77142 0 9.21553C0 13.2993 5.93154 20.7163 8.27695 23.4903C8.39246 23.6266 8.53625 23.7361 8.69833 23.8111C8.86042 23.8862 9.0369 23.9251 9.21553 23.9251C9.39415 23.9251 9.57064 23.8862 9.73272 23.8111C9.8948 23.7361 10.0386 23.6266 10.1541 23.4903C12.4968 20.7163 18.4311 13.2993 18.4311 9.21553C18.4311 8.00533 18.1927 6.80698 17.7296 5.6889C17.2664 4.57082 16.5876 3.55491 15.7319 2.69917C14.8761 1.84342 13.8602 1.16461 12.7422 0.70149C11.6241 0.238367 10.4257 0 9.21553 0ZM9.21553 12.2876C8.60793 12.2876 8.01398 12.1074 7.50878 11.7699C7.00358 11.4323 6.60982 10.9525 6.3773 10.3912C6.14479 9.82981 6.08395 9.21212 6.20249 8.6162C6.32102 8.02027 6.61361 7.47288 7.04325 7.04325C7.47288 6.61361 8.02027 6.32102 8.6162 6.20249C9.21212 6.08395 9.82981 6.14479 10.3912 6.3773C10.9525 6.60982 11.4323 7.00358 11.7699 7.50878C12.1074 8.01398 12.2876 8.60793 12.2876 9.21553C12.2876 10.0303 11.9639 10.8117 11.3878 11.3878C10.8117 11.9639 10.0303 12.2876 9.21553 12.2876Z" fill="#32AA3A"/>
</svg>
