<svg width="25" height="18" viewBox="0 0 25 18" fill="none" xmlns="http://www.w3.org/2000/svg">
<path d="M16.5718 8.72109L24.9999 14.0492V3.16797L16.5718 8.72109Z" fill="#32AA3A"/>
<path d="M0 3.16797V14.0492L8.42812 8.72109L0 3.16797Z" fill="#32AA3A"/>
<path d="M23.4375 0H1.5625C0.782812 0 0.164062 0.58125 0.046875 1.32969L12.5 9.53437L24.9531 1.32969C24.8359 0.58125 24.2172 0 23.4375 0Z" fill="#32AA3A"/>
<path d="M15.1404 9.66562L12.9295 11.1219C12.7982 11.2078 12.6498 11.25 12.4998 11.25C12.3498 11.25 12.2014 11.2078 12.0701 11.1219L9.85918 9.66406L0.0498047 15.8687C0.170117 16.6109 0.785742 17.1875 1.5623 17.1875H23.4373C24.2139 17.1875 24.8295 16.6109 24.9498 15.8687L15.1404 9.66562Z" fill="#32AA3A"/>
</svg>
