<svg width="38" height="38" viewBox="0 0 38 38" fill="none" xmlns="http://www.w3.org/2000/svg">
<path d="M1.01546 36.6143L1.01632 36.6151C1.18094 36.7799 1.37644 36.9107 1.59164 36.9999C1.80683 37.0891 2.0375 37.135 2.27045 37.135C2.5034 37.135 2.73406 37.0891 2.94925 36.9999C3.16436 36.9107 3.35979 36.7801 3.52438 36.6153C3.52444 36.6153 3.52451 36.6152 3.52457 36.6151L18.8114 21.3283L34.1046 36.6153C34.1046 36.6154 34.1046 36.6154 34.1047 36.6154C34.4372 36.9479 34.8882 37.1347 35.3585 37.1347C35.8288 37.1347 36.2799 36.9479 36.6125 36.6153C36.945 36.2828 37.1319 35.8317 37.1319 35.3614C37.1319 34.8911 36.945 34.44 36.6125 34.1075L36.6124 34.1074L21.3192 18.8204L36.6061 3.52726C36.6061 3.52723 36.6061 3.52721 36.6062 3.52719C36.9387 3.19463 37.1255 2.74361 37.1255 2.27333C37.1255 1.80301 36.9387 1.35196 36.6061 1.0194C36.2735 0.686832 35.8225 0.5 35.3522 0.5C34.8819 0.5 34.4308 0.686831 34.0982 1.0194L34.0982 1.01947L18.8112 16.3127L3.51794 1.02569L3.50432 1.01207L3.48969 0.99954C3.15058 0.709138 2.71439 0.557391 2.26826 0.574623C1.82213 0.591855 1.39894 0.776796 1.08325 1.09249C0.767553 1.40818 0.582612 1.83138 0.56538 2.2775C0.548148 2.72363 0.699895 3.15983 0.990296 3.49893L1.00283 3.51356L1.01644 3.52719L16.3036 18.8205L1.01644 34.1139H1.01644L1.01546 34.1149C0.685312 34.447 0.5 34.8963 0.5 35.3646C0.5 35.8329 0.685313 36.2822 1.01546 36.6143Z" fill="#292929" stroke="#292929"/>
</svg>
