<svg width="148" height="26" viewBox="0 0 148 26" fill="none" xmlns="http://www.w3.org/2000/svg">
<g clip-path="url(#clip0_42_1706)">
<path d="M19.3656 0.0976562H15.9158L14.9096 3.16211H18.7906L22.8154 15.5636L13.8555 22.1234V25.9061L25.1152 17.7183C25.9298 17.1437 26.2652 16.0903 25.9777 15.1326L21.5696 1.67777C21.2821 0.720124 20.3718 0.0976562 19.3656 0.0976562Z" fill="white"/>
<path d="M10.2621 14.2219L14.8618 0.0488281H7.38725C6.38105 0.0488281 5.47069 0.719178 5.1832 1.62894L0.823034 15.1317C0.535551 16.0893 0.870948 17.1428 1.68549 17.7173L12.9453 25.9052V22.1225L8.72884 19.058L10.2621 14.2219ZM3.88953 15.5626L7.9143 3.16117H10.6454L6.09357 17.1906L3.88953 15.5626Z" fill="white"/>
<path d="M33.9793 16.7115C33.9793 17.6213 34.1231 18.2438 34.4585 18.5311C34.7939 18.8662 35.4167 19.0099 36.4229 19.0578V19.2493C32.0628 19.2014 29.6671 19.2014 29.2358 19.2493V19.0578C30.0504 19.0099 30.5774 18.8662 30.817 18.5311C31.0566 18.1959 31.2003 17.6213 31.2003 16.7115V4.35794C31.2003 3.49607 31.1045 2.96936 30.8649 2.72995C30.6253 2.49054 30.0983 2.34689 29.2838 2.29901V2.01172C33.6439 2.01172 36.0396 2.0596 36.4229 2.0596C38.2916 2.0596 39.729 2.49054 40.7352 3.35242C41.7414 4.2143 42.2205 5.36347 42.2205 6.79993C42.2205 7.4224 42.1247 8.04487 41.933 8.61945C41.7414 9.19404 41.406 9.76863 40.9268 10.3432C40.4956 10.9178 39.8248 11.3487 38.9145 11.6839C38.052 12.0191 36.9979 12.2106 35.848 12.2106H33.9793V16.7115ZM33.9793 4.35794V12.0191H35.6084C36.2313 12.0191 36.8062 11.9233 37.2375 11.7318C37.6687 11.5403 38.0041 11.3487 38.2437 11.1093C38.4832 10.8699 38.627 10.4869 38.7228 10.008C38.8186 9.52921 38.9145 9.09828 38.9145 8.81098C38.9145 8.52369 38.9624 8.04487 38.9624 7.4224C38.9624 7.27875 38.9624 7.18299 38.9624 7.13511C38.9624 6.41688 38.9624 5.89017 38.9145 5.45923C38.8665 5.02829 38.8186 4.59735 38.7228 4.16641C38.627 3.73548 38.4353 3.35242 38.2437 3.16089C37.9562 2.8736 37.6208 2.68207 37.2375 2.53842C36.8542 2.39478 36.375 2.29901 35.8 2.29901C35.0813 2.29901 34.6022 2.44266 34.3626 2.68207C34.1231 2.96936 33.9793 3.49607 33.9793 4.35794Z" fill="#FEFEFE"/>
<path d="M54.3427 12.1639H46.8202C46.4849 16.4733 47.539 18.7716 49.8867 18.9631C50.6055 19.011 51.3242 18.8195 52.0908 18.3407C52.8574 17.8619 53.4324 17.0957 53.7678 16.0423C53.8157 16.0423 53.8636 16.0423 53.9115 16.0902C53.9594 16.1381 54.0073 16.1381 54.0553 16.1381C53.7199 17.0957 53.1928 17.8619 52.4262 18.4843C51.6596 19.0589 50.7971 19.3941 49.7909 19.3941C47.7785 19.3941 46.1974 18.8195 45.0474 17.6703C43.9454 16.4733 43.3704 14.9411 43.3704 12.9779C43.3225 11.2062 43.8975 9.62613 44.9995 8.28543C46.1015 6.94473 47.6827 6.32227 49.6472 6.32227C50.2701 6.32227 50.845 6.41803 51.3721 6.65744C51.8991 6.84897 52.4262 7.18414 52.9053 7.61508C53.3845 8.04602 53.7199 8.66849 54.0073 9.4346C54.2948 10.2007 54.3907 11.1105 54.3427 12.1639ZM51.995 11.9245C52.2824 10.488 52.1866 9.24308 51.6596 8.23755C51.1804 7.23203 50.5096 6.70532 49.6951 6.65744C49.3597 6.60956 49.0243 6.70532 48.7368 6.94473C48.4493 7.18414 48.1139 7.5672 47.7785 8.18967C47.2994 9.00367 47.0119 10.2486 46.8202 11.9245H51.995Z" fill="#FEFEFE"/>
<path d="M67.2317 17.3343C67.2317 18.0046 67.3754 18.4356 67.615 18.675C67.9025 18.9144 68.3816 19.058 69.0524 19.058V19.2974H62.584V19.058C63.2069 19.058 63.6381 18.9623 63.9256 18.7707C64.2131 18.5792 64.3568 18.244 64.4048 17.7173V13.6474C64.4048 13.2643 64.4048 12.8334 64.4048 12.2588C64.4048 11.6842 64.4048 11.349 64.4048 11.0617C64.4048 10.8223 64.4048 10.535 64.4048 10.152C64.4048 9.81678 64.4048 9.52949 64.3569 9.38584C64.3089 9.19432 64.3089 9.00279 64.261 8.81126C64.2131 8.57185 64.1652 8.4282 64.1173 8.23667C64.0694 8.09303 63.9735 7.94938 63.9256 7.80573C63.6861 7.32691 63.2548 7.0875 62.7278 6.99174C62.2007 6.89597 61.6258 7.03962 61.0508 7.37479C60.38 7.75785 59.8529 8.38032 59.5175 9.14643C59.1821 9.96043 58.9905 10.7744 58.9905 11.6842V12.9291C58.9905 13.5516 58.9905 14.3656 58.9905 15.3711C58.9905 16.3766 58.9905 17.047 58.9905 17.3343C58.9905 18.0046 59.1342 18.4356 59.3738 18.675C59.6613 18.9144 60.0925 19.058 60.8112 19.058V19.2974H54.2949V19.058C54.9657 19.058 55.4449 18.9144 55.7323 18.675C56.0198 18.4356 56.1156 17.9567 56.1156 17.3343V12.9291L56.0677 9.09855C56.0677 8.85914 55.9719 8.76338 55.7803 8.76338H55.6365V8.52397C57.3135 8.38032 58.3197 7.70997 58.7988 6.51292H58.9905V9.48161C59.1342 8.95491 59.4217 8.4282 59.8529 7.94938C60.2363 7.47056 60.6196 7.13538 60.955 6.94386C61.6737 6.5608 62.5361 6.36927 63.5423 6.36927C64.5006 6.41715 65.2672 6.60868 65.7464 6.99174C65.9859 7.13538 66.1776 7.32691 66.3692 7.56632C66.5609 7.75785 66.6567 7.99726 66.8005 8.23667C66.8963 8.47608 66.9921 8.76338 67.04 9.05067C67.0879 9.33796 67.1359 9.67314 67.1838 9.96043C67.2317 10.2956 67.2317 10.6308 67.2317 11.0138C67.2317 11.3969 67.2317 11.78 67.2317 12.163C67.2317 12.5461 67.2317 12.977 67.2317 13.3601V17.3343Z" fill="#FEFEFE"/>
<path d="M73.269 6.56122V17.3347C73.269 17.7178 73.269 17.9572 73.3169 18.1487C73.3649 18.3402 73.3649 18.4839 73.4607 18.5796C73.5086 18.6754 73.6523 18.7233 73.7961 18.6754C73.9398 18.6275 74.1315 18.5318 74.3711 18.3402L74.419 18.3881L74.4669 18.436L74.5148 18.4839C73.844 18.9627 73.1732 19.2021 72.5024 19.2021C71.4962 19.2021 70.8733 18.819 70.5859 18.1008C70.5859 18.0529 70.5379 17.9572 70.5379 17.8135C70.49 17.6699 70.49 17.4783 70.49 17.2389C70.49 16.9995 70.49 16.7601 70.4421 16.4728C70.4421 16.2334 70.4421 15.8504 70.3942 15.4194C70.3942 14.9885 70.3942 14.5575 70.3942 14.1745C70.3942 13.7914 70.3942 13.2647 70.3942 12.6423C70.3942 11.9719 70.3942 11.3973 70.3942 10.8706C70.3942 10.3439 70.3942 9.67356 70.3942 8.81168C70.3942 7.9498 70.3942 7.18369 70.3942 6.51334H69.1484V6.27393H70.3942L70.4421 5.07688C70.4421 4.83747 70.3463 4.7417 70.1067 4.7417H69.963V4.50229C71.592 4.35864 72.6462 3.68829 73.1253 2.44336H73.3169V6.27393H74.5627V6.51334H73.269V6.56122Z" fill="#FEFEFE"/>
<path d="M85.0079 17.335C85.0079 18.0054 85.1516 18.4363 85.3912 18.6757C85.6308 18.9151 86.1099 19.0588 86.8286 19.0588V19.2982H83.2351C82.5643 19.2982 82.181 18.8673 82.181 17.9575C81.5102 18.7715 80.6477 19.2024 79.6415 19.3461C78.9228 19.4418 78.2041 19.3461 77.5812 19.0588C76.9583 18.7715 76.4792 18.3884 76.1917 17.8617C75.9042 17.335 75.9042 16.6647 76.2396 15.8507C76.5271 15.0367 77.1979 14.1748 78.252 13.3129C79.2582 12.4511 80.5998 11.5413 82.2289 10.6794C82.2289 10.2006 82.181 9.76966 82.181 9.3866C82.181 7.66284 81.4143 6.80096 79.929 6.80096C79.0186 6.80096 78.1562 7.04038 77.3896 7.5192C77.3417 7.56708 77.3417 7.61496 77.4375 7.66284C77.8208 7.66284 78.1562 7.80649 78.4437 8.09378C78.7312 8.38107 78.8749 8.71625 78.8749 9.14719C78.8749 9.53025 78.7791 9.86542 78.4916 10.1527C78.2041 10.44 77.9166 10.5837 77.5333 10.6315C77.1021 10.6315 76.7188 10.5358 76.4313 10.2485C76.0959 9.96119 75.9521 9.62601 75.9521 9.19507C75.9521 8.42896 76.4313 7.80649 77.3417 7.27979C78.252 6.75308 79.3061 6.51367 80.504 6.51367C83.5226 6.51367 85.0558 7.95014 85.0558 10.7752L85.0079 17.335ZM78.8749 16.952C79.2582 17.6702 79.7853 18.1011 80.504 18.1969C81.1748 18.2927 81.7497 18.1011 82.181 17.6223V10.8231C80.4561 11.9244 79.402 12.8341 78.9707 13.5523C78.3478 14.6058 78.2999 15.7549 78.8749 16.952Z" fill="#FEFEFE"/>
<path d="M97.2258 16.1372C97.3696 16.1851 97.4654 16.233 97.5133 16.233C97.1779 17.1906 96.6509 17.9567 95.9321 18.5792C95.1655 19.1538 94.3031 19.489 93.249 19.489C91.4761 19.489 89.9908 18.9623 88.745 17.8131C87.5472 16.6639 86.9243 15.0359 86.9243 12.8334C86.9243 11.78 87.116 10.8223 87.5472 9.91255C87.9784 9.05067 88.5534 8.33244 89.2242 7.80573C89.9429 7.27903 90.6616 6.84809 91.4761 6.60868C92.2907 6.32139 93.1052 6.27351 93.9677 6.36927C94.8301 6.46503 95.5488 6.75233 96.2196 7.23115C97.13 7.85362 97.5612 8.52397 97.5612 9.29008C97.5612 9.72102 97.4175 10.0562 97.0821 10.3435C96.7467 10.6308 96.4113 10.7744 95.9801 10.7265C95.5967 10.7265 95.2613 10.535 94.9739 10.2956C94.7343 10.0083 94.5905 9.67314 94.5905 9.29008C94.5905 8.9549 94.6864 8.61973 94.926 8.38032C95.1655 8.09303 95.4051 7.94938 95.7405 7.85362C95.8363 7.85362 95.9321 7.75785 95.9321 7.66209C95.9801 7.51844 95.9321 7.42268 95.8363 7.37479C95.1176 6.94385 94.4468 6.70444 93.8239 6.65656C93.201 6.60868 92.6261 6.80021 92.099 7.18327C91.572 7.56632 91.1407 8.18879 90.8053 9.14643C90.47 10.1041 90.2783 11.3011 90.1825 12.7376C90.0866 14.8444 90.3262 16.4245 90.9012 17.43C91.4761 18.4356 92.2428 18.9623 93.201 19.058C93.9198 19.1059 94.6385 18.9144 95.4051 18.4356C96.1717 17.9567 96.8425 17.1906 97.2258 16.1372Z" fill="#FEFEFE"/>
<path d="M109.108 7.85456C110.162 8.95584 110.69 10.5838 110.69 12.7864C110.69 14.989 110.162 16.617 109.108 17.7183C108.054 18.8196 106.713 19.3463 105.036 19.3463C103.359 19.3463 102.017 18.8196 100.963 17.7183C99.9089 16.617 99.3818 14.989 99.3818 12.7864C99.3818 10.5838 99.9089 8.95584 100.963 7.85456C102.017 6.75327 103.359 6.22656 105.036 6.22656C106.713 6.22656 108.054 6.75327 109.108 7.85456ZM103.215 7.95032C102.88 8.90796 102.688 10.536 102.688 12.7864C102.688 15.0369 102.88 16.6649 103.215 17.6225C103.55 18.628 104.173 19.1069 105.036 19.1069C105.898 19.1069 106.521 18.628 106.856 17.6225C107.192 16.617 107.383 15.0369 107.383 12.7385C107.383 10.4881 107.192 8.90796 106.856 7.90244C106.521 6.94479 105.898 6.41809 105.036 6.41809C104.173 6.51386 103.55 6.99268 103.215 7.95032Z" fill="#FEFEFE"/>
<path d="M124.632 19.0102V19.2496H121.662C121.422 19.2496 121.23 19.2017 121.039 19.1059C120.895 19.0102 120.799 18.8665 120.751 18.7229C120.703 18.5792 120.656 18.3877 120.608 18.1962C120.56 18.0046 120.56 17.8131 120.56 17.6216C120.56 17.43 120.56 17.2385 120.56 17.0949C119.937 18.5792 118.835 19.2974 117.158 19.2974C115.577 19.2974 114.379 18.7229 113.516 17.6216C112.654 16.5203 112.223 14.8923 112.223 12.7376C112.223 10.6308 112.75 9.00279 113.804 7.85362C114.858 6.70444 116.152 6.12986 117.685 6.12986C119.026 6.12986 120.033 6.60868 120.608 7.56632C120.608 5.12433 120.656 3.44846 120.656 2.58658C120.656 2.34717 120.56 2.25141 120.32 2.25141H120.176V2.012C121.805 1.86835 122.86 1.24588 123.291 0.0488281H123.482V10.5829V18.244C123.53 18.5313 123.626 18.7229 123.77 18.8665C123.866 18.9623 124.153 19.0102 124.632 19.0102ZM120.608 16.1372V8.28456C120.176 7.0875 119.266 6.51292 117.924 6.51292C117.014 6.51292 116.391 6.89597 116.152 7.70997C115.864 8.52397 115.72 9.96043 115.768 12.1151C115.768 12.5939 115.768 13.0728 115.768 13.5037C115.768 13.9346 115.768 14.3656 115.816 14.7486C115.816 15.1317 115.864 15.5148 115.912 15.8978C115.96 16.233 116.008 16.5682 116.056 16.8555C116.104 17.1428 116.2 17.43 116.295 17.6216C116.391 17.861 116.535 18.0525 116.679 18.1962C116.822 18.3398 117.014 18.4835 117.206 18.5313C117.397 18.6271 117.637 18.675 117.924 18.675C118.595 18.675 119.17 18.4835 119.649 18.0525C120.081 17.6695 120.416 16.9991 120.608 16.1372Z" fill="#FEFEFE"/>
<path d="M136.659 12.1639H129.137C128.801 16.4733 129.855 18.7716 132.203 18.9631C132.922 19.011 133.641 18.8195 134.407 18.3407C135.174 17.8619 135.749 17.0957 136.084 16.0423C136.132 16.0423 136.18 16.0423 136.228 16.0902C136.276 16.1381 136.324 16.1381 136.372 16.1381C136.036 17.0957 135.509 17.8619 134.743 18.4843C133.976 19.0589 133.114 19.3941 132.107 19.3941C130.095 19.3941 128.514 18.8195 127.364 17.6703C126.262 16.4733 125.687 14.9411 125.687 12.9779C125.639 11.2062 126.214 9.62613 127.316 8.28543C128.418 6.94473 129.999 6.32227 131.964 6.32227C132.586 6.32227 133.161 6.41803 133.688 6.65744C134.216 6.84897 134.743 7.18414 135.222 7.61508C135.701 8.04602 136.036 8.66849 136.324 9.4346C136.611 10.2007 136.707 11.1105 136.659 12.1639ZM134.311 11.9245C134.599 10.488 134.503 9.24308 133.976 8.23755C133.497 7.23203 132.826 6.70532 132.011 6.65744C131.676 6.60956 131.341 6.70532 131.053 6.94473C130.766 7.18414 130.43 7.5672 130.095 8.18967C129.616 9.00367 129.328 10.2486 129.137 11.9245H134.311Z" fill="#FEFEFE"/>
<path d="M144.469 7.13459C144.66 7.27823 144.852 7.374 144.996 7.46976C145.139 7.56553 145.235 7.56553 145.331 7.51764C145.427 7.46976 145.475 7.42188 145.571 7.42188C145.619 7.374 145.667 7.27823 145.714 7.13459C145.762 6.94306 145.762 6.84729 145.762 6.75153C145.762 6.65577 145.81 6.51212 145.81 6.32059H146.002C145.954 7.18247 145.906 8.57105 145.906 10.4385H145.714C145.571 9.38505 145.139 8.52317 144.517 7.70917C143.894 6.94306 143.079 6.56 142.025 6.56C141.45 6.56 141.019 6.75153 140.731 7.13459C140.444 7.51764 140.3 7.99647 140.3 8.61893C140.3 8.85834 140.348 9.04987 140.444 9.28928C140.54 9.52869 140.636 9.67234 140.731 9.86387C140.827 10.0075 141.019 10.199 141.258 10.3906C141.498 10.5821 141.69 10.7257 141.881 10.8215C142.025 10.9173 142.265 11.1088 142.648 11.3482C143.031 11.5876 143.271 11.7313 143.415 11.8749C144.517 12.5932 145.379 13.2635 145.906 13.8381C146.433 14.4127 146.721 15.1788 146.721 16.0885C146.721 17.142 146.289 17.9559 145.427 18.5784C144.565 19.153 143.51 19.4882 142.36 19.4882C141.642 19.4882 141.019 19.3924 140.444 19.153C140.204 19.0572 140.013 18.9136 139.821 18.8178C139.629 18.6742 139.534 18.5784 139.438 18.5305C139.342 18.4827 139.294 18.4348 139.198 18.4348C139.007 18.4348 138.815 18.5305 138.671 18.7221C138.479 18.9136 138.384 19.1051 138.384 19.3445H138.192C138.24 18.4348 138.288 16.8068 138.288 14.5084H138.479C138.527 15.9449 138.863 17.0941 139.486 17.9559C140.109 18.8178 141.019 19.2009 142.217 19.2009C142.744 19.2009 143.223 18.9615 143.654 18.5305C144.085 18.0996 144.277 17.4771 144.277 16.6631C144.277 16.328 144.229 16.0407 144.085 15.7534C143.942 15.4661 143.75 15.1788 143.415 14.8915C143.079 14.6042 142.792 14.3648 142.6 14.2211C142.36 14.0775 141.977 13.8381 141.45 13.455C140.827 13.072 140.396 12.7847 140.156 12.5932C139.917 12.4016 139.581 12.1622 139.198 11.7792C138.815 11.3961 138.527 11.0609 138.384 10.6779C138.24 10.2948 138.144 9.86387 138.144 9.38505C138.144 8.37952 138.527 7.61341 139.294 7.0867C140.061 6.56 140.971 6.27271 141.977 6.27271C142.888 6.22483 143.75 6.51212 144.469 7.13459Z" fill="#FEFEFE"/>
<path d="M34.1231 22.5059L32.9732 25.9055H32.7336L31.6795 22.841L30.6254 25.9055H30.3858L29.188 22.5059H29.4276L30.4817 25.5703L31.5358 22.5059H31.7753L32.8294 25.5703L33.8836 22.5059H34.1231Z" fill="#FEFEFE"/>
<path d="M39.1539 25.6661V25.9055H36.8062V22.5059H39.106V22.7453H37.0936V24.086H38.9144V24.3254H37.0936V25.714H39.1539V25.6661Z" fill="#FEFEFE"/>
<path d="M45.862 22.6974H44.6162V22.5059H47.2994V22.7453H46.0536V25.9534H45.8141V22.6974H45.862Z" fill="#FEFEFE"/>
<path d="M51.8511 24.9478H49.8867L49.4555 25.9055H49.168L50.7491 22.5059H50.9887L52.5699 25.9055H52.2824L51.8511 24.9478ZM51.7553 24.7084L50.845 22.7453L49.9346 24.7084H51.7553Z" fill="#FEFEFE"/>
<path d="M56.1156 24.2296L55.3489 24.9957V25.9055H55.1094V22.5059H55.3489V24.7084L57.4572 22.5059H57.7446L56.2593 24.0381L57.8405 25.9055H57.553L56.1156 24.2296Z" fill="#FEFEFE"/>
<path d="M62.8717 25.6661V25.9055H60.5239V22.5059H62.8238V22.7453H60.8114V24.086H62.6321V24.3254H60.8114V25.714H62.8717V25.6661Z" fill="#FEFEFE"/>
<path d="M69.9626 24.7075V25.9045H69.723V24.7075L68.3335 22.457H68.621L69.8667 24.4681L71.1125 22.457H71.3521L69.9626 24.7075Z" fill="#FEFEFE"/>
<path d="M74.3229 25.6651C74.0354 25.5215 73.8438 25.33 73.7 25.0427C73.5563 24.8033 73.4604 24.4681 73.4604 24.1808C73.4604 23.8456 73.5563 23.5583 73.7 23.3189C73.8438 23.0795 74.0833 22.8401 74.3229 22.6964C74.6104 22.5528 74.8979 22.457 75.2333 22.457C75.5687 22.457 75.8561 22.5528 76.1436 22.6964C76.4311 22.8401 76.6228 23.0316 76.7665 23.3189C76.9103 23.5583 77.0061 23.8935 77.0061 24.2287C77.0061 24.5638 76.9103 24.8511 76.7665 25.1384C76.6228 25.3778 76.3832 25.6173 76.1436 25.7609C75.8561 25.9045 75.5687 26.0003 75.2333 26.0003C74.8979 26.0003 74.5625 25.8567 74.3229 25.6651ZM75.9999 25.4736C76.2395 25.33 76.4311 25.1863 76.5269 24.9469C76.6707 24.7075 76.7186 24.4681 76.7186 24.1808C76.7186 23.8935 76.6707 23.6541 76.5269 23.4147C76.3832 23.1753 76.1915 22.9837 75.9999 22.888C75.7603 22.7443 75.5207 22.6964 75.2333 22.6964C74.9458 22.6964 74.7062 22.7443 74.4666 22.888C74.2271 23.0316 74.0354 23.1753 73.9396 23.4147C73.7958 23.6541 73.7479 23.8935 73.7479 24.1808C73.7479 24.4681 73.7958 24.7075 73.9396 24.9469C74.0833 25.1863 74.275 25.3778 74.4666 25.4736C74.7062 25.6173 74.9458 25.6651 75.2333 25.6651C75.5207 25.6651 75.7603 25.6173 75.9999 25.4736Z" fill="#FEFEFE"/>
<path d="M80.1206 25.5224C79.881 25.283 79.7852 24.9 79.7852 24.4211V22.5059H80.0247V24.4211C80.0247 24.8521 80.1206 25.1394 80.3122 25.3788C80.5039 25.5703 80.7914 25.714 81.1267 25.714C81.5101 25.714 81.7496 25.6182 81.9413 25.3788C82.1329 25.1873 82.2288 24.8521 82.2288 24.4211V22.5059H82.4683V24.4211C82.4683 24.9 82.3246 25.283 82.085 25.5224C81.8455 25.7618 81.5101 25.9055 81.0788 25.9055C80.6955 25.9055 80.3601 25.8097 80.1206 25.5224Z" fill="#FEFEFE"/>
<path d="M89.0325 22.6974V24.1339H90.8533V24.3733H89.0325V25.8576H88.793V22.5059H91.0928V22.7453H89.0325V22.6974Z" fill="#FEFEFE"/>
<path d="M94.1591 25.5224C93.9196 25.283 93.8237 24.9 93.8237 24.4211V22.5059H94.0633V24.4211C94.0633 24.8521 94.1591 25.1394 94.3508 25.3788C94.5424 25.5703 94.8299 25.714 95.1653 25.714C95.5486 25.714 95.7882 25.6182 95.9799 25.3788C96.1715 25.1873 96.2673 24.8521 96.2673 24.4211V22.5059H96.5069V24.4211C96.5069 24.9 96.3632 25.283 96.1236 25.5224C95.884 25.7618 95.5486 25.9055 95.1174 25.9055C94.7341 25.9055 94.3987 25.8097 94.1591 25.5224Z" fill="#FEFEFE"/>
<path d="M102.017 25.9055L101.203 24.7563C101.059 24.7563 100.963 24.8042 100.867 24.8042H99.909V25.9055H99.6694V22.5059H100.915C101.346 22.5059 101.682 22.6016 101.921 22.7932C102.161 22.9847 102.305 23.272 102.305 23.655C102.305 23.9423 102.257 24.1339 102.113 24.3254C101.969 24.5169 101.778 24.6606 101.538 24.7084L102.401 25.9055H102.017ZM100.867 24.5648C101.251 24.5648 101.49 24.469 101.682 24.3254C101.873 24.1817 101.969 23.9423 101.969 23.655C101.969 23.3677 101.873 23.1283 101.682 22.9847C101.49 22.841 101.203 22.7453 100.867 22.7453H99.909V24.6127H100.867V24.5648Z" fill="#FEFEFE"/>
<path d="M105.707 22.6974H104.461V22.5059H107.144V22.7453H105.898V25.9534H105.659V22.6974H105.707Z" fill="#FEFEFE"/>
<path d="M112.51 22.5059V25.9055H112.271V24.2775H109.971V25.9055H109.731V22.5059H109.971V24.086H112.271V22.5059H112.51Z" fill="#FEFEFE"/>
<path d="M118.021 25.6661V25.9055H115.673V22.5059H117.973V22.7453H115.96V24.086H117.781V24.3254H115.96V25.714H118.021V25.6661Z" fill="#FEFEFE"/>
<path d="M123.243 25.9055L122.429 24.7563C122.285 24.7563 122.189 24.8042 122.093 24.8042H121.135V25.9055H120.896V22.5059H122.141C122.572 22.5059 122.908 22.6016 123.147 22.7932C123.387 22.9847 123.531 23.272 123.531 23.655C123.531 23.9423 123.483 24.1339 123.339 24.3254C123.195 24.5169 123.004 24.6606 122.764 24.7084L123.627 25.9055H123.243ZM122.093 24.5648C122.477 24.5648 122.716 24.469 122.908 24.3254C123.1 24.1817 123.195 23.9423 123.195 23.655C123.195 23.3677 123.1 23.1283 122.908 22.9847C122.716 22.841 122.429 22.7453 122.093 22.7453H121.135V24.6127H122.093V24.5648Z" fill="#FEFEFE"/>
<path d="M129.568 25.9055V22.9847L128.13 25.4267H127.987L126.549 22.9847V25.9055H126.31V22.5059H126.501L128.034 25.1394L129.568 22.5059H129.759V25.9055H129.568Z" fill="#FEFEFE"/>
<path d="M133.497 25.6651C133.209 25.5215 133.018 25.33 132.874 25.0427C132.73 24.8033 132.634 24.4681 132.634 24.1808C132.634 23.8456 132.73 23.5583 132.874 23.3189C133.018 23.0795 133.257 22.8401 133.497 22.6964C133.736 22.5528 134.072 22.457 134.407 22.457C134.742 22.457 135.03 22.5528 135.317 22.6964C135.605 22.8401 135.797 23.0316 135.94 23.3189C136.084 23.5583 136.18 23.8935 136.18 24.2287C136.18 24.5638 136.084 24.8511 135.94 25.1384C135.797 25.3778 135.557 25.6173 135.317 25.7609C135.03 25.9045 134.742 26.0003 134.407 26.0003C134.072 26.0003 133.736 25.8567 133.497 25.6651ZM135.174 25.4736C135.413 25.33 135.605 25.1863 135.701 24.9469C135.845 24.7075 135.892 24.4681 135.892 24.1808C135.892 23.8935 135.845 23.6541 135.701 23.4147C135.557 23.1753 135.365 22.9837 135.174 22.888C134.934 22.7443 134.695 22.6964 134.407 22.6964C134.12 22.6964 133.88 22.7443 133.64 22.888C133.401 23.0316 133.209 23.1753 133.113 23.4147C132.97 23.6541 132.922 23.8935 132.922 24.1808C132.922 24.4681 132.97 24.7075 133.113 24.9469C133.257 25.1863 133.449 25.3778 133.64 25.4736C133.88 25.6173 134.12 25.6651 134.407 25.6651C134.695 25.6651 134.934 25.6173 135.174 25.4736Z" fill="#FEFEFE"/>
<path d="M141.355 25.9055L140.54 24.7563C140.396 24.7563 140.301 24.8042 140.205 24.8042H139.246V25.9055H139.007V22.5059H140.253C140.684 22.5059 141.019 22.6016 141.259 22.7932C141.498 22.9847 141.642 23.272 141.642 23.655C141.642 23.9423 141.594 24.1339 141.45 24.3254C141.307 24.5169 141.115 24.6606 140.875 24.7084L141.738 25.9055H141.355ZM140.205 24.5648C140.588 24.5648 140.828 24.469 141.019 24.3254C141.211 24.1817 141.307 23.9423 141.307 23.655C141.307 23.3677 141.211 23.1283 141.019 22.9847C140.828 22.841 140.54 22.7453 140.205 22.7453H139.246V24.6127H140.205V24.5648Z" fill="#FEFEFE"/>
<path d="M146.769 25.6661V25.9055H144.421V22.5059H146.721V22.7453H144.708V24.086H146.529V24.3254H144.708V25.714H146.769V25.6661Z" fill="#FEFEFE"/>
</g>
<defs>
<clipPath id="clip0_42_1706">
<rect width="147" height="26" fill="white" transform="translate(0.248047)"/>
</clipPath>
</defs>
</svg>
