<svg width="60" height="60" viewBox="0 0 60 60" fill="none" xmlns="http://www.w3.org/2000/svg">
<g opacity="0.2">
<path d="M25.4367 35.4439C27.5131 24.7514 37.3084 19.8921 47.3052 21.7856C46.159 15.7864 40.5424 10.8811 36.8928 6.32118C36.3752 5.67456 36.1084 4.53738 36.8928 3.92807C38.8168 2.43339 40.6124 1.96801 42.2666 2.20396C42.3813 1.88998 42.685 1.65589 43.0795 1.77993C48.951 3.6287 52.7533 9.90059 55.2972 15.0984C58.654 21.9588 60.338 29.9007 59.9435 37.524C59.3214 49.5424 48.591 61.0024 35.8131 57.6658C26.4847 55.2301 23.837 43.6827 25.4367 35.4439ZM49.3449 45.0611C49.3439 45.0571 49.3414 45.0546 49.3405 45.0508C49.2821 44.8255 49.232 44.5979 49.1788 44.3707C49.006 44.5939 48.849 44.8416 48.7104 45.1112C48.9295 45.1398 49.1428 45.1581 49.3467 45.1625C49.348 45.127 49.3436 45.0953 49.3449 45.0611ZM52.0476 16.8567C51.8934 16.9226 51.7299 16.9643 51.5595 16.9801C52.0588 17.9811 52.5192 18.9996 52.9339 20.0407C53.0965 19.9937 53.2668 19.9664 53.4406 19.9667C53.0185 18.9128 52.5459 17.8792 52.0476 16.8567ZM53.3293 47.3641C52.9277 47.7791 52.4968 48.1767 52.0482 48.5597C52.1154 48.6464 52.1723 48.7397 52.2204 48.8376C52.6202 48.3697 52.9976 47.8835 53.3293 47.3641ZM41.8046 47.3227C42.3194 46.6506 42.7083 45.9086 42.9527 45.0981C42.9586 45.0384 42.9781 44.9787 43.0105 44.919C43.0857 44.6402 43.1451 44.3539 43.183 44.0579C42.3387 45.2057 41.66 46.484 41.0305 47.776C41.3019 47.6519 41.5593 47.4996 41.8046 47.3227Z" fill="#32AA3A"/>
<path d="M23.4895 19.8519C22.3595 15.2876 19.2775 12.1369 17.0385 8.0206C16.6745 7.35129 16.8175 6.31048 17.5798 5.9564C18.9734 5.30884 20.2259 4.59041 21.6193 4.05726C22.0411 3.15791 23.3145 2.56755 24.2894 3.44609C26.0132 4.99952 27.8952 6.99192 29.3989 9.21778C31.3929 11.6637 32.8247 14.6326 33.3004 17.4883C33.3567 17.8265 33.2982 18.1694 33.1658 18.4821C33.2376 18.6068 33.3097 18.7299 33.3818 18.8549C33.7459 19.4856 33.5385 20.3334 32.8984 20.6987C25.3087 25.026 22.1692 32.0723 22.3927 39.4966C22.777 40.5797 22.8746 41.7495 22.7282 42.9256C23.3425 46.6617 24.7492 50.4027 26.8267 53.8578C27.2937 54.634 27.1196 55.3605 26.6638 55.853C26.5445 56.2416 26.2308 56.5702 25.6669 56.6976C13.567 59.4308 1.39411 53.6402 0.0812836 40.4386C-1.14045 28.1541 11.6564 17.8013 23.4895 19.8519ZM18.8864 53.989C18.8438 53.9489 18.8059 53.9047 18.7639 53.8637C17.6531 53.7776 16.6378 53.4655 15.7752 52.9634C15.7652 53.0063 15.7587 53.0458 15.7484 53.089C15.7204 53.2074 15.6601 53.2973 15.6119 53.3986C16.6795 53.67 17.7747 53.8718 18.8864 53.989ZM10.3041 30.8932C10.4188 31.1036 10.5195 31.315 10.6209 31.5267C10.6289 31.4677 10.6302 31.4067 10.6392 31.3477C10.624 30.9106 10.5469 30.4601 10.4281 30.001C10.4154 30.0097 10.4011 30.0171 10.3883 30.0258C10.3274 30.2789 10.2777 30.5369 10.2388 30.7996C10.259 30.8319 10.2851 30.859 10.3041 30.8932ZM4.52337 44.1408C4.51871 43.8523 4.52337 43.5616 4.53363 43.2691C4.344 42.947 4.16928 42.6166 4.02068 42.2746C4.14255 42.9277 4.32006 43.5433 4.52337 44.1408Z" fill="#32AA3A"/>
</g>
</svg>
