<svg width="70" height="70" viewBox="0 0 70 70" fill="none" xmlns="http://www.w3.org/2000/svg">
<g opacity="0.2">
<path d="M40.3238 41.3512C37.9014 28.8766 26.4735 23.2074 14.8106 25.4166C16.1478 18.4174 22.7005 12.6946 26.9584 7.37471C27.5623 6.62032 27.8735 5.29362 26.9584 4.58275C24.7138 2.83895 22.6189 2.29601 20.689 2.57129C20.5552 2.20497 20.2008 1.93187 19.7406 2.07658C12.8905 4.23348 8.45451 11.5507 5.48664 17.6148C1.57035 25.6186 -0.394323 34.8841 0.0659266 43.778C0.791663 57.7994 13.3105 71.1695 28.218 67.2768C39.1012 64.4351 42.1902 50.9631 40.3238 41.3512ZM12.431 52.5713C12.4321 52.5666 12.435 52.5637 12.4361 52.5593C12.5043 52.2964 12.5627 52.0309 12.6247 51.7658C12.8263 52.0262 13.0095 52.3152 13.1713 52.6297C12.9156 52.6631 12.6668 52.6845 12.4288 52.6895C12.4274 52.6482 12.4325 52.6112 12.431 52.5713ZM9.27781 19.6662C9.4577 19.7431 9.64847 19.7917 9.84723 19.8102C9.26475 20.978 8.72761 22.1662 8.24379 23.3808C8.0541 23.326 7.85535 23.2941 7.65261 23.2945C8.14514 22.065 8.69642 20.859 9.27781 19.6662ZM7.78245 55.2581C8.25104 55.7423 8.75373 56.2061 9.27708 56.653C9.19874 56.7542 9.13237 56.863 9.07615 56.9772C8.60974 56.4314 8.16944 55.8641 7.78245 55.2581ZM21.228 55.2098C20.6274 54.4257 20.1736 53.56 19.8886 52.6145C19.8817 52.5448 19.8588 52.4752 19.8211 52.4055C19.7333 52.0802 19.6641 51.7462 19.6198 51.4009C20.6049 52.7399 21.3966 54.2313 22.1311 55.7386C21.8144 55.5939 21.5141 55.4162 21.228 55.2098Z" fill="#32AA3A"/>
<path d="M42.5953 23.1602C43.9136 17.8352 47.5093 14.1594 50.1214 9.35704C50.5461 8.57618 50.3792 7.3619 49.4899 6.9488C47.864 6.19333 46.4027 5.35516 44.7772 4.73315C44.285 3.6839 42.7994 2.99516 41.6621 4.02011C39.651 5.83245 37.4553 8.15691 35.7009 10.7537C33.3747 13.6074 31.7041 17.071 31.1492 20.4027C31.0836 20.7973 31.1518 21.1973 31.3063 21.5622C31.2225 21.7076 31.1383 21.8512 31.0542 21.997C30.6295 22.7329 30.8714 23.722 31.6182 24.1481C40.4728 29.1967 44.1356 37.4174 43.8748 46.0791C43.4265 47.3427 43.3126 48.7075 43.4835 50.0795C42.7668 54.4383 41.1256 58.8029 38.7018 62.8338C38.1571 63.7394 38.3602 64.587 38.8919 65.1615C39.0311 65.6148 39.3971 65.9982 40.055 66.1469C54.1715 69.3356 68.3732 62.5799 69.9048 47.178C71.3302 32.8461 56.4006 20.7679 42.5953 23.1602ZM47.9656 62.9868C48.0152 62.94 48.0595 62.8885 48.1085 62.8406C49.4043 62.7402 50.5889 62.376 51.5953 61.7903C51.6069 61.8404 51.6145 61.8864 51.6265 61.9368C51.6592 62.075 51.7295 62.1798 51.7857 62.2981C50.5403 62.6147 49.2625 62.8501 47.9656 62.9868ZM57.9783 36.0417C57.8444 36.2873 57.7269 36.5339 57.6087 36.7809C57.5992 36.712 57.5978 36.6409 57.5873 36.572C57.605 36.062 57.695 35.5365 57.8335 35.0008C57.8484 35.011 57.8651 35.0197 57.88 35.0298C57.951 35.3251 58.0091 35.6261 58.0544 35.9326C58.0308 35.9703 58.0004 36.0018 57.9783 36.0417ZM64.7224 51.4973C64.7279 51.1607 64.7224 50.8216 64.7104 50.4803C64.9317 50.1045 65.1355 49.719 65.3089 49.32C65.1667 50.0821 64.9596 50.8002 64.7224 51.4973Z" fill="#32AA3A"/>
</g>
</svg>
