<svg width="32" height="32" viewBox="0 0 32 32" fill="none" xmlns="http://www.w3.org/2000/svg">
<path d="M11.9288 31H10.6688C10.5551 31 10.4461 30.9548 10.3658 30.8744C10.2854 30.7941 10.2402 30.6851 10.2402 30.5714C10.2402 30.4577 10.2854 30.3487 10.3658 30.2683C10.4461 30.188 10.5551 30.1428 10.6688 30.1428H11.9288C12.0425 30.1428 12.1515 30.188 12.2319 30.2683C12.3122 30.3487 12.3574 30.4577 12.3574 30.5714C12.3574 30.6851 12.3122 30.7941 12.2319 30.8744C12.1515 30.9548 12.0425 31 11.9288 31Z" fill="#32AA3A" stroke="#32AA3A" stroke-width="0.6"/>
<path d="M30.5714 31H19.1886C19.0749 31 18.9659 30.9548 18.8855 30.8745C18.8051 30.7941 18.76 30.6851 18.76 30.5714C18.76 30.4577 18.8051 30.3487 18.8855 30.2684C18.9659 30.188 19.0749 30.1428 19.1886 30.1428H30.1428V28.4286H1.85714V30.1428H7.66857C7.78223 30.1428 7.89124 30.188 7.97161 30.2684C8.05199 30.3487 8.09714 30.4577 8.09714 30.5714C8.09714 30.6851 8.05199 30.7941 7.97161 30.8745C7.89124 30.9548 7.78223 31 7.66857 31H1.42857C1.31491 31 1.2059 30.9548 1.12553 30.8745C1.04515 30.7941 1 30.6851 1 30.5714V28C1 27.8863 1.04515 27.7773 1.12553 27.6969C1.2059 27.6166 1.31491 27.5714 1.42857 27.5714H30.5714C30.6851 27.5714 30.7941 27.6166 30.8745 27.6969C30.9548 27.7773 31 27.8863 31 28V30.5714C31 30.6851 30.9548 30.7941 30.8745 30.8745C30.7941 30.9548 30.6851 31 30.5714 31Z" fill="#32AA3A" stroke="#32AA3A" stroke-width="0.6"/>
<path d="M16.1843 31H14.9286C14.8149 31 14.7059 30.9548 14.6255 30.8744C14.5452 30.7941 14.5 30.6851 14.5 30.5714C14.5 30.4577 14.5452 30.3487 14.6255 30.2683C14.7059 30.188 14.8149 30.1428 14.9286 30.1428H16.1843C16.2979 30.1428 16.407 30.188 16.4873 30.2683C16.5677 30.3487 16.6129 30.4577 16.6129 30.5714C16.6129 30.6851 16.5677 30.7941 16.4873 30.8744C16.407 30.9548 16.2979 31 16.1843 31Z" fill="#32AA3A" stroke="#32AA3A" stroke-width="0.6"/>
<path d="M21.5714 4.42857H1.42857C1.31491 4.42857 1.2059 4.38342 1.12553 4.30304C1.04515 4.22267 1 4.11366 1 4V1.42857C1 1.31491 1.04515 1.2059 1.12553 1.12553C1.2059 1.04515 1.31491 1 1.42857 1H21.5714C21.6851 1 21.7941 1.04515 21.8745 1.12553C21.9548 1.2059 22 1.31491 22 1.42857V4C22 4.11366 21.9548 4.22267 21.8745 4.30304C21.7941 4.38342 21.6851 4.42857 21.5714 4.42857ZM1.85714 3.57143H21.1429V1.85714H1.85714V3.57143Z" fill="#32AA3A" stroke="#32AA3A" stroke-width="0.6"/>
<path d="M30.5717 14.7142H20.286C20.1723 14.7142 20.0633 14.6691 19.9829 14.5887C19.9026 14.5083 19.8574 14.3993 19.8574 14.2856V11.7142C19.8574 11.6006 19.9026 11.4915 19.9829 11.4112C20.0633 11.3308 20.1723 11.2856 20.286 11.2856H30.5717C30.6854 11.2856 30.7944 11.3308 30.8747 11.4112C30.9551 11.4915 31.0003 11.6006 31.0003 11.7142V14.2856C31.0003 14.3993 30.9551 14.5083 30.8747 14.5887C30.7944 14.6691 30.6854 14.7142 30.5717 14.7142ZM20.7146 13.8571H30.1431V12.1428H20.7146V13.8571Z" fill="#32AA3A" stroke="#32AA3A" stroke-width="0.6"/>
<path d="M20.2853 28.4285H3.14244C3.02877 28.4285 2.91977 28.3834 2.83939 28.303C2.75902 28.2226 2.71387 28.1136 2.71387 28V3.99998C2.71387 3.88632 2.75902 3.77731 2.83939 3.69694C2.91977 3.61656 3.02877 3.57141 3.14244 3.57141H20.2853C20.399 3.57141 20.508 3.61656 20.5883 3.69694C20.6687 3.77731 20.7139 3.88632 20.7139 3.99998V28C20.7139 28.1136 20.6687 28.2226 20.5883 28.303C20.508 28.3834 20.399 28.4285 20.2853 28.4285ZM3.57101 27.5714H19.8567V4.42855H3.57101V27.5714Z" fill="#32AA3A" stroke="#32AA3A" stroke-width="0.6"/>
<path d="M16.6424 11.2857H13.6424C13.5288 11.2857 13.4198 11.2406 13.3394 11.1602C13.259 11.0798 13.2139 10.9708 13.2139 10.8572V7.85716C13.2139 7.7435 13.259 7.63449 13.3394 7.55411C13.4198 7.47374 13.5288 7.42859 13.6424 7.42859H16.6424C16.7561 7.42859 16.8651 7.47374 16.9455 7.55411C17.0259 7.63449 17.071 7.7435 17.071 7.85716V10.8572C17.071 10.9708 17.0259 11.0798 16.9455 11.1602C16.8651 11.2406 16.7561 11.2857 16.6424 11.2857ZM14.071 10.4286H16.2139V8.28573H14.071V10.4286Z" fill="#32AA3A" stroke="#32AA3A" stroke-width="0.6"/>
<path d="M25.7496 20.152H23.3924C23.2788 20.152 23.1698 20.1069 23.0894 20.0265C23.009 19.9461 22.9639 19.8371 22.9639 19.7235V17.3663C22.9639 17.2527 23.009 17.1436 23.0894 17.0633C23.1698 16.9829 23.2788 16.9377 23.3924 16.9377H25.7496C25.8632 16.9377 25.9723 16.9829 26.0526 17.0633C26.133 17.1436 26.1782 17.2527 26.1782 17.3663V19.7235C26.1782 19.8371 26.133 19.9461 26.0526 20.0265C25.9723 20.1069 25.8632 20.152 25.7496 20.152ZM23.821 19.2949H25.321V17.7949H23.821V19.2949Z" fill="#32AA3A" stroke="#32AA3A" stroke-width="0.6"/>
<path d="M25.7496 25.348H23.3924C23.2788 25.348 23.1698 25.3028 23.0894 25.2224C23.009 25.1421 22.9639 25.033 22.9639 24.9194V22.5622C22.9639 22.4486 23.009 22.3396 23.0894 22.2592C23.1698 22.1788 23.2788 22.1337 23.3924 22.1337H25.7496C25.8632 22.1337 25.9723 22.1788 26.0526 22.2592C26.133 22.3396 26.1782 22.4486 26.1782 22.5622V24.9194C26.1782 25.033 26.133 25.1421 26.0526 25.2224C25.9723 25.3028 25.8632 25.348 25.7496 25.348ZM23.821 24.4908H25.321V22.9908H23.821V24.4908Z" fill="#32AA3A" stroke="#32AA3A" stroke-width="0.6"/>
<path d="M9.78599 11.2857H6.78599C6.67233 11.2857 6.56332 11.2406 6.48295 11.1602C6.40257 11.0798 6.35742 10.9708 6.35742 10.8572V7.85716C6.35742 7.7435 6.40257 7.63449 6.48295 7.55411C6.56332 7.47374 6.67233 7.42859 6.78599 7.42859H9.78599C9.89966 7.42859 10.0087 7.47374 10.089 7.55411C10.1694 7.63449 10.2146 7.7435 10.2146 7.85716V10.8572C10.2146 10.9708 10.1694 11.0798 10.089 11.1602C10.0087 11.2406 9.89966 11.2857 9.78599 11.2857ZM7.21456 10.4286H9.35742V8.28573H7.21456V10.4286Z" fill="#32AA3A" stroke="#32AA3A" stroke-width="0.6"/>
<path d="M16.6424 17.9286H13.6424C13.5288 17.9286 13.4198 17.8834 13.3394 17.803C13.259 17.7227 13.2139 17.6136 13.2139 17.5V14.5C13.2139 14.3863 13.259 14.2773 13.3394 14.1969C13.4198 14.1166 13.5288 14.0714 13.6424 14.0714H16.6424C16.7561 14.0714 16.8651 14.1166 16.9455 14.1969C17.0259 14.2773 17.071 14.3863 17.071 14.5V17.5C17.071 17.6136 17.0259 17.7227 16.9455 17.803C16.8651 17.8834 16.7561 17.9286 16.6424 17.9286ZM14.071 17.0714H16.2139V14.9286H14.071V17.0714Z" fill="#32AA3A" stroke="#32AA3A" stroke-width="0.6"/>
<path d="M9.78599 17.9286H6.78599C6.67233 17.9286 6.56332 17.8834 6.48295 17.803C6.40257 17.7227 6.35742 17.6136 6.35742 17.5V14.5C6.35742 14.3863 6.40257 14.2773 6.48295 14.1969C6.56332 14.1166 6.67233 14.0714 6.78599 14.0714H9.78599C9.89966 14.0714 10.0087 14.1166 10.089 14.1969C10.1694 14.2773 10.2146 14.3863 10.2146 14.5V17.5C10.2146 17.6136 10.1694 17.7227 10.089 17.803C10.0087 17.8834 9.89966 17.9286 9.78599 17.9286ZM7.21456 17.0714H9.35742V14.9286H7.21456V17.0714Z" fill="#32AA3A" stroke="#32AA3A" stroke-width="0.6"/>
<path d="M16.6424 24.5714H13.6424C13.5288 24.5714 13.4198 24.5262 13.3394 24.4458C13.259 24.3655 13.2139 24.2565 13.2139 24.1428V21.1428C13.2139 21.0291 13.259 20.9201 13.3394 20.8398C13.4198 20.7594 13.5288 20.7142 13.6424 20.7142H16.6424C16.7561 20.7142 16.8651 20.7594 16.9455 20.8398C17.0259 20.9201 17.071 21.0291 17.071 21.1428V24.1428C17.071 24.2565 17.0259 24.3655 16.9455 24.4458C16.8651 24.5262 16.7561 24.5714 16.6424 24.5714ZM14.071 23.7142H16.2139V21.5714H14.071V23.7142Z" fill="#32AA3A" stroke="#32AA3A" stroke-width="0.6"/>
<path d="M9.78599 24.5714H6.78599C6.67233 24.5714 6.56332 24.5262 6.48295 24.4458C6.40257 24.3655 6.35742 24.2565 6.35742 24.1428V21.1428C6.35742 21.0291 6.40257 20.9201 6.48295 20.8398C6.56332 20.7594 6.67233 20.7142 6.78599 20.7142H9.78599C9.89966 20.7142 10.0087 20.7594 10.089 20.8398C10.1694 20.9201 10.2146 21.0291 10.2146 21.1428V24.1428C10.2146 24.2565 10.1694 24.3655 10.089 24.4458C10.0087 24.5262 9.89966 24.5714 9.78599 24.5714ZM7.21456 23.7142H9.35742V21.5714H7.21456V23.7142Z" fill="#32AA3A" stroke="#32AA3A" stroke-width="0.6"/>
<path d="M28.8574 28.4286H20.286C20.1723 28.4286 20.0633 28.3834 19.9829 28.3031C19.9026 28.2227 19.8574 28.1137 19.8574 28V14.2857C19.8574 14.1721 19.9026 14.0631 19.9829 13.9827C20.0633 13.9023 20.1723 13.8572 20.286 13.8572H28.8574C28.9711 13.8572 29.0801 13.9023 29.1605 13.9827C29.2408 14.0631 29.286 14.1721 29.286 14.2857V28C29.286 28.1137 29.2408 28.2227 29.1605 28.3031C29.0801 28.3834 28.9711 28.4286 28.8574 28.4286ZM20.7146 27.5715H28.4288V14.7143H20.7146V27.5715Z" fill="#32AA3A" stroke="#32AA3A" stroke-width="0.6"/>
</svg>
