<svg width="40" height="40" viewBox="0 0 40 40" fill="none" xmlns="http://www.w3.org/2000/svg">
<g clip-path="url(#clip0_1_3426)">
<path d="M35.1562 6.64062C35.1562 4.27133 33.2287 2.34375 30.8594 2.34375H30V5.85938C30 6.50656 29.4753 7.03125 28.8281 7.03125C28.1809 7.03125 27.6562 6.50656 27.6562 5.85938V2.34375H22.5V5.85938C22.5 6.50656 21.9753 7.03125 21.3281 7.03125C20.6809 7.03125 20.1562 6.50656 20.1562 5.85938V2.34375H15V5.85938C15 6.50656 14.4753 7.03125 13.8281 7.03125C13.1809 7.03125 12.6562 6.50656 12.6562 5.85938V2.34375H7.5V5.85938C7.5 6.50656 6.97531 7.03125 6.32812 7.03125C5.68094 7.03125 5.15625 6.50656 5.15625 5.85938V2.34375H4.29688C1.92758 2.34375 0 4.27133 0 6.64062V10.1562H35.1562V6.64062Z" fill="#2E9047"/>
<path d="M7.5 1.17188C7.5 0.524687 6.97531 0 6.32812 0C5.68094 0 5.15625 0.524687 5.15625 1.17188V2.34375H7.5V1.17188Z" fill="#2E9047"/>
<path d="M30 1.17188C30 0.524687 29.4753 0 28.8281 0C28.1809 0 27.6562 0.524687 27.6562 1.17188V2.34375H30V1.17188Z" fill="#2E9047"/>
<path d="M22.5 1.17188C22.5 0.524687 21.9753 0 21.3281 0C20.6809 0 20.1562 0.524687 20.1562 1.17188V2.34375H22.5V1.17188Z" fill="#2E9047"/>
<path d="M15 1.17188C15 0.524687 14.4753 0 13.8281 0C13.1809 0 12.6562 0.524687 12.6562 1.17188V2.34375H15V1.17188Z" fill="#2E9047"/>
<path d="M31.4062 20.4688C32.723 20.4688 33.9861 20.7027 35.1562 21.1311V12.5H0V30.0781C0 32.0166 1.57711 33.5938 3.51562 33.5938H20.6887C20.5446 32.8867 20.4688 32.1552 20.4688 31.4062C20.4688 25.3753 25.3753 20.4688 31.4062 20.4688ZM27.0312 16.6016H28.9844C29.6316 16.6016 30.1562 17.1262 30.1562 17.7734C30.1562 18.4206 29.6316 18.9453 28.9844 18.9453H27.0312C26.3841 18.9453 25.8594 18.4206 25.8594 17.7734C25.8594 17.1262 26.3841 16.6016 27.0312 16.6016ZM20.0781 16.6016H22.0312C22.6784 16.6016 23.2031 17.1262 23.2031 17.7734C23.2031 18.4206 22.6784 18.9453 22.0312 18.9453H20.0781C19.4309 18.9453 18.9062 18.4206 18.9062 17.7734C18.9062 17.1262 19.4309 16.6016 20.0781 16.6016ZM8.125 29.4922H6.17188C5.52469 29.4922 5 28.9675 5 28.3203C5 27.6731 5.52469 27.1484 6.17188 27.1484H8.125C8.77219 27.1484 9.29688 27.6731 9.29688 28.3203C9.29688 28.9675 8.77219 29.4922 8.125 29.4922ZM8.125 24.2188H6.17188C5.52469 24.2188 5 23.6941 5 23.0469C5 22.3997 5.52469 21.875 6.17188 21.875H8.125C8.77219 21.875 9.29688 22.3997 9.29688 23.0469C9.29688 23.6941 8.77219 24.2188 8.125 24.2188ZM15.0781 29.4922H13.125C12.4778 29.4922 11.9531 28.9675 11.9531 28.3203C11.9531 27.6731 12.4778 27.1484 13.125 27.1484H15.0781C15.7253 27.1484 16.25 27.6731 16.25 28.3203C16.25 28.9675 15.7253 29.4922 15.0781 29.4922ZM15.0781 24.2188H13.125C12.4778 24.2188 11.9531 23.6941 11.9531 23.0469C11.9531 22.3997 12.4778 21.875 13.125 21.875H15.0781C15.7253 21.875 16.25 22.3997 16.25 23.0469C16.25 23.6941 15.7253 24.2188 15.0781 24.2188ZM15.0781 18.9453H13.125C12.4778 18.9453 11.9531 18.4206 11.9531 17.7734C11.9531 17.1262 12.4778 16.6016 13.125 16.6016H15.0781C15.7253 16.6016 16.25 17.1262 16.25 17.7734C16.25 18.4206 15.7253 18.9453 15.0781 18.9453ZM18.9062 23.0469C18.9062 22.3997 19.4309 21.875 20.0781 21.875H22.0312C22.6784 21.875 23.2031 22.3997 23.2031 23.0469C23.2031 23.6941 22.6784 24.2188 22.0312 24.2188H20.0781C19.4309 24.2188 18.9062 23.6941 18.9062 23.0469Z" fill="#2E9047"/>
<path d="M31.4062 22.8125C26.6677 22.8125 22.8125 26.6677 22.8125 31.4062C22.8125 36.1448 26.6677 40 31.4062 40C36.1448 40 40 36.1448 40 31.4062C40 26.6677 36.1448 22.8125 31.4062 22.8125ZM35.3125 32.5781H31.4062C30.7591 32.5781 30.2344 32.0534 30.2344 31.4062V27.5C30.2344 26.8528 30.7591 26.3281 31.4062 26.3281C32.0534 26.3281 32.5781 26.8528 32.5781 27.5V30.2344H35.3125C35.9597 30.2344 36.4844 30.7591 36.4844 31.4062C36.4844 32.0534 35.9597 32.5781 35.3125 32.5781Z" fill="#2E9047"/>
</g>
<defs>
<clipPath id="clip0_1_3426">
<rect width="40" height="40" fill="white"/>
</clipPath>
</defs>
</svg>
