<svg width="39" height="33" viewBox="0 0 39 33" fill="none" xmlns="http://www.w3.org/2000/svg">
<g opacity="0.6">
<path d="M29.3699 7.81077C28.812 5.58066 27.5251 3.60086 25.7134 2.18575C23.9017 0.770639 21.6693 0.00133655 19.3704 1.73993e-06C17.0716 -0.00133307 14.8382 0.765377 13.0249 2.17838C11.2116 3.59139 9.92234 5.56969 9.36185 7.79915C6.71798 8.04728 4.2713 9.30435 2.53004 11.3092C0.788781 13.3141 -0.113225 15.9128 0.0113863 18.5653C0.135998 21.2179 1.27765 23.7205 3.1992 25.5533C5.12075 27.3861 7.67449 28.4083 10.33 28.4075H14.2025C14.5449 28.4075 14.8732 28.2715 15.1153 28.0294C15.3574 27.7873 15.4934 27.459 15.4934 27.1166C15.4934 26.7743 15.3574 26.4459 15.1153 26.2039C14.8732 25.9618 14.5449 25.8258 14.2025 25.8258H10.33C9.31288 25.8288 8.30516 25.6314 7.36435 25.2449C6.42354 24.8584 5.56807 24.2904 4.84677 23.5733C3.39006 22.125 2.56832 20.1574 2.56232 18.1033C2.55633 16.0492 3.36658 14.0768 4.81483 12.6201C6.26307 11.1634 8.23068 10.3417 10.2848 10.3357C10.616 10.3606 10.9447 10.2616 11.2071 10.0579C11.4694 9.85423 11.6468 9.56034 11.7047 9.23328C11.9676 7.39003 12.8866 5.7035 14.293 4.48341C15.6994 3.26331 17.4988 2.59158 19.3607 2.59158C21.2226 2.59158 23.022 3.26331 24.4284 4.48341C25.8348 5.7035 26.7539 7.39003 27.0167 9.23328C27.0842 9.54898 27.2592 9.83147 27.5118 10.0325C27.7644 10.2336 28.079 10.3407 28.4018 10.3357C30.4559 10.3357 32.4259 11.1517 33.8784 12.6041C35.3309 14.0566 36.1469 16.0266 36.1469 18.0807C36.1469 20.1348 35.3309 22.1048 33.8784 23.5573C32.4259 25.0098 30.4559 25.8258 28.4018 25.8258H24.5293C24.1869 25.8258 23.8586 25.9618 23.6165 26.2039C23.3744 26.4459 23.2384 26.7743 23.2384 27.1166C23.2384 27.459 23.3744 27.7873 23.6165 28.0294C23.8586 28.2715 24.1869 28.4075 24.5293 28.4075H28.4018C31.0379 28.3799 33.5636 27.3452 35.4613 25.5155C37.3591 23.6857 38.4853 21.1995 38.6091 18.5662C38.7329 15.9329 37.8449 13.3519 36.1271 11.3522C34.4093 9.35253 31.9918 8.0855 29.3699 7.81077Z" fill="#292929"/>
<path d="M24.9075 18.9934C25.151 19.2285 25.477 19.3586 25.8155 19.3557C26.1539 19.3527 26.4777 19.217 26.717 18.9776C26.9564 18.7383 27.0921 18.4145 27.0951 18.0761C27.098 17.7376 26.9679 17.4116 26.7328 17.1681L20.2785 10.7139C20.0365 10.4719 19.7082 10.3359 19.3659 10.3359C19.0236 10.3359 18.6954 10.4719 18.4533 10.7139L11.9991 17.1681C11.7639 17.4116 11.6338 17.7376 11.6368 18.0761C11.6397 18.4145 11.7755 18.7383 12.0148 18.9776C12.2541 19.217 12.5779 19.3527 12.9163 19.3557C13.2548 19.3586 13.5809 19.2285 13.8243 18.9934L18.0751 14.7426V30.9892C18.0751 31.3315 18.2111 31.6599 18.4532 31.9019C18.6952 32.144 19.0236 32.28 19.3659 32.28C19.7083 32.28 20.0366 32.144 20.2787 31.9019C20.5208 31.6599 20.6568 31.3315 20.6568 30.9892V14.7426L24.9075 18.9934Z" fill="#292929"/>
</g>
</svg>
