<svg width="36" height="24" viewBox="0 0 36 24" fill="none" xmlns="http://www.w3.org/2000/svg">
<path d="M30.9663 10.6803C31.981 9.96728 32.6529 8.78124 32.6529 7.44438C32.6529 5.2574 30.8841 3.48863 28.6971 3.48863C26.5101 3.48863 24.7414 5.2574 24.7414 7.44438C24.7414 8.78124 25.4064 9.96728 26.4279 10.6803C25.5572 10.9819 24.7619 11.4481 24.0901 12.0514C23.1645 11.263 22.0745 10.6597 20.8816 10.3032C22.3281 9.42568 23.3016 7.8283 23.3016 6.01153C23.3016 3.24182 21.0598 1 18.2901 1C15.5204 1 13.2786 3.24868 13.2786 6.01153C13.2786 7.8283 14.2452 9.42568 15.6987 10.3032C14.5195 10.6597 13.4431 11.2562 12.5245 12.0309C11.8526 11.4413 11.071 10.9819 10.2141 10.6871C11.2287 9.97414 11.9006 8.7881 11.9006 7.45123C11.9006 5.26426 10.1318 3.49548 7.94484 3.49548C5.75787 3.49548 3.98909 5.26426 3.98909 7.45123C3.98909 8.7881 4.6541 9.97414 5.6756 10.6871C2.95388 11.6264 1 14.211 1 17.2481V17.7005C1 17.7142 1.01371 17.728 1.02742 17.728H9.41197C9.36398 18.105 9.33655 18.4958 9.33655 18.8866V19.3528C9.33655 21.3683 10.9682 23 12.9838 23H23.6102C25.6257 23 27.2574 21.3683 27.2574 19.3528V18.8866C27.2574 18.4958 27.23 18.105 27.182 17.728H35.6214C35.6351 17.728 35.6488 17.7142 35.6488 17.7005V17.2481C35.6351 14.2041 33.6881 11.6195 30.9663 10.6803ZM25.8383 7.43752C25.8383 5.8607 27.1203 4.57869 28.6971 4.57869C30.2739 4.57869 31.5559 5.8607 31.5559 7.43752C31.5559 8.99377 30.3013 10.2621 28.7519 10.2964C28.7314 10.2964 28.7177 10.2964 28.6971 10.2964C28.6765 10.2964 28.6628 10.2964 28.6423 10.2964C27.086 10.2689 25.8383 9.00062 25.8383 7.43752ZM14.3618 6.01153C14.3618 3.85198 16.1169 2.09692 18.2764 2.09692C20.436 2.09692 22.191 3.85198 22.191 6.01153C22.191 8.09567 20.5525 9.80274 18.5026 9.91929C18.4272 9.91929 18.3518 9.91929 18.2764 9.91929C18.201 9.91929 18.1256 9.91929 18.0502 9.91929C16.0003 9.80274 14.3618 8.09567 14.3618 6.01153ZM5.06544 7.43752C5.06544 5.8607 6.34746 4.57869 7.92428 4.57869C9.50109 4.57869 10.7831 5.8607 10.7831 7.43752C10.7831 8.99377 9.52851 10.2621 7.97912 10.2964C7.95855 10.2964 7.94484 10.2964 7.92428 10.2964C7.90371 10.2964 7.89 10.2964 7.86943 10.2964C6.32004 10.2689 5.06544 9.00062 5.06544 7.43752ZM9.60393 16.6242H2.11063C2.41913 13.7036 4.88719 11.4138 7.88314 11.3933C7.89685 11.3933 7.91056 11.3933 7.92428 11.3933C7.93799 11.3933 7.9517 11.3933 7.96541 11.3933C9.3914 11.4001 10.694 11.928 11.7018 12.785C10.7146 13.8545 9.98099 15.1708 9.60393 16.6242ZM26.1468 19.3528C26.1468 20.7582 25.0019 21.9031 23.5964 21.9031H12.9701C11.5647 21.9031 10.4198 20.7582 10.4198 19.3528V18.8866C10.4198 14.6292 13.8202 11.1465 18.0502 11.0231C18.1256 11.0299 18.2079 11.0299 18.2833 11.0299C18.3587 11.0299 18.4409 11.0299 18.5164 11.0231C22.7463 11.1465 26.1468 14.6292 26.1468 18.8866V19.3528ZM26.9626 16.6242C26.5855 15.1776 25.8657 13.8819 24.8853 12.8124C25.9 11.9349 27.2163 11.407 28.656 11.3933C28.6697 11.3933 28.6834 11.3933 28.6971 11.3933C28.7108 11.3933 28.7245 11.3933 28.7382 11.3933C31.7342 11.4138 34.2022 13.7036 34.5107 16.6242H26.9626Z" fill="#32AA3A" stroke="#32AA3A" stroke-width="0.6"/>
</svg>
