<svg width="40" height="40" viewBox="0 0 40 40" fill="none" xmlns="http://www.w3.org/2000/svg">
<path d="M14.0222 38.6813C15.5167 39.2967 17.1431 39.5604 18.7255 39.5604C21.8904 39.5604 25.0991 38.4176 27.4728 36.3077C29.5827 34.4615 32.7915 30.1978 30.7255 22.5934C29.9343 19.6483 28.3958 17.011 26.9453 14.5055C24.7035 10.6373 22.4178 6.6813 22.4618 1.23075C22.4618 0.879103 22.242 0.527455 21.9343 0.395587C21.5827 0.263719 21.231 0.307675 20.9233 0.527455C12.7475 7.69229 5.27497 20.7033 6.85739 30.0659C7.60464 34.1099 10.0662 37.0989 14.0222 38.6813ZM22.5497 31.6923C24.0442 30.6373 24.7035 29.1428 24.3958 27.6044C24.264 26.989 24.6596 26.4176 25.275 26.2857C25.8904 26.1538 26.4618 26.5494 26.5936 27.1648C27.0772 29.5824 26.0662 31.956 23.8684 33.4945C23.6925 33.6264 23.4728 33.7143 23.253 33.7143C22.9013 33.7143 22.5497 33.5384 22.3299 33.2308C21.8904 32.7033 22.0222 32.0439 22.5497 31.6923ZM19.6046 32.8351H19.8244C20.7475 32.9231 20.9233 33.6264 20.9233 33.978C20.9233 34.3297 20.6596 35.033 19.7365 35.033C18.8574 35.033 18.5497 34.3297 18.5497 33.978C18.5057 33.6703 18.6816 32.9231 19.6046 32.8351Z" fill="#2E9047"/>
</svg>
