<svg width="25" height="25" viewBox="0 0 25 25" fill="none" xmlns="http://www.w3.org/2000/svg">
<path d="M0.993164 24.0548L2.61803 18.1212C1.61553 16.3848 1.08853 14.4147 1.0891 12.3969C1.09158 6.08356 6.22941 0.947266 12.5422 0.947266C15.6061 0.948601 18.4818 2.14108 20.6438 4.30534C22.8064 6.46961 23.9965 9.34647 23.9954 12.4059C23.9927 18.7194 18.8547 23.8562 12.5427 23.8562C12.5422 23.8562 12.5429 23.8562 12.5427 23.8562H12.5376C10.6209 23.8555 8.73738 23.3744 7.06464 22.4627L0.993164 24.0548Z" fill="#32AA3A"/>
<path fill-rule="evenodd" clip-rule="evenodd" d="M9.57902 7.43325C9.357 6.93962 9.12316 6.92971 8.91183 6.92112C8.73902 6.91368 8.54123 6.91407 8.34382 6.91407C8.14622 6.91407 7.82502 6.98845 7.55341 7.28505C7.28162 7.58164 6.51562 8.2988 6.51562 9.75735C6.51562 11.2161 7.57802 12.6254 7.72622 12.8234C7.87442 13.0212 9.777 16.11 12.79 17.2982C15.2942 18.2859 15.8037 18.0894 16.3472 18.04C16.8908 17.9906 18.1011 17.3228 18.3481 16.6307C18.5952 15.9385 18.5952 15.3453 18.5211 15.2211C18.4469 15.0977 18.2493 15.0235 17.9529 14.8753C17.6564 14.7271 16.199 14.0098 15.9272 13.911C15.6554 13.812 15.4578 13.7628 15.2602 14.0596C15.0625 14.356 14.4948 15.0235 14.3218 15.2211C14.1488 15.4193 13.9758 15.4441 13.6794 15.2957C13.383 15.1471 12.4282 14.8343 11.2956 13.8244C10.4144 13.0388 9.81934 12.0683 9.64635 11.7715C9.47354 11.4751 9.64349 11.3286 9.77662 11.1667C10.0164 10.8751 10.4186 10.3507 10.5174 10.1531C10.6162 9.95514 10.5668 9.78215 10.4928 9.63375C10.4186 9.48555 9.84242 8.01957 9.57902 7.43325Z" fill="white"/>
</svg>
