<svg width="109" height="109" viewBox="0 0 109 109" fill="none" xmlns="http://www.w3.org/2000/svg">
<g clip-path="url(#clip0_1_3902)">
<path d="M25.2531 35.5753H32.1348V32.1344C32.1348 30.2341 30.5944 28.6934 28.6939 28.6934C26.7936 28.6934 25.2529 30.2339 25.2529 32.1344V35.5753H25.2531Z" fill="#688ED5"/>
<path d="M83.7469 35.5753H76.8652V32.1344C76.8652 30.2341 78.4057 28.6934 80.3062 28.6934C82.2064 28.6934 83.7471 30.2339 83.7471 32.1344V35.5753H83.7469Z" fill="#688ED5"/>
<path d="M8.47852 35.5762H100.522V61.3828H8.47852V35.5762Z" fill="#E6F7FE"/>
<path d="M8.47852 35.5762H100.522V61.3828H8.47852V35.5762Z" fill="#E6F7FE"/>
<path d="M94.9304 35.5762V52.7805C94.9304 54.4434 93.5824 55.7912 91.9197 55.7912H8.47852V61.3826H100.522V35.5762H94.9304Z" fill="#D3EFFD"/>
<path d="M41.5967 61.3809H67.4033V78.5852H41.5967V61.3809Z" fill="#B2E5FB"/>
<path d="M41.5967 61.3809H67.4033V68.2625H41.5967V61.3809Z" fill="#91DAFA"/>
<path d="M107.403 32.9938V63.9615C107.403 64.9116 106.633 65.6819 105.683 65.6819H102.242C101.292 65.6819 100.521 64.9116 100.521 63.9615V32.9938C100.521 32.0437 101.292 31.2734 102.242 31.2734H105.683C106.633 31.2732 107.403 32.0437 107.403 32.9938Z" fill="#8D9CA8"/>
<path d="M8.47837 32.9938V63.9615C8.47837 64.9116 7.70813 65.6819 6.758 65.6819H3.31705C2.36692 65.6819 1.59668 64.9116 1.59668 63.9615V32.9938C1.59668 32.0437 2.36692 31.2734 3.31705 31.2734H6.758C7.70813 31.2732 8.47837 32.0437 8.47837 32.9938Z" fill="#9FACBA"/>
<path d="M70.4142 85.4677H38.5862C37.8737 85.4677 37.2959 84.8899 37.2959 84.1774V82.8536C37.2959 82.331 37.5335 81.8366 37.9416 81.5103L41.5969 78.586H67.4035L71.0589 81.5103C71.467 81.8368 71.7046 82.331 71.7046 82.8536V84.1774C71.7046 84.8901 71.1268 85.4677 70.4142 85.4677Z" fill="#9FACBA"/>
<path d="M71.0591 81.5103L67.4038 78.586H60.9521L64.6075 81.5103C65.0156 81.8368 65.2532 82.331 65.2532 82.8536V84.1774C65.2532 84.8899 64.6754 85.4677 63.9628 85.4677H70.4145C71.127 85.4677 71.7048 84.8899 71.7048 84.1774V82.8536C71.7048 82.3312 71.4672 81.8368 71.0591 81.5103Z" fill="#8D9CA8"/>
<path d="M105.683 29.6774H102.242C100.413 29.6774 98.9249 31.1653 98.9249 32.9944V33.9795H85.344V32.1343C85.344 29.9148 83.9004 28.0271 81.9033 27.3575V1.59668C81.9033 0.714674 81.1886 0 80.3066 0C79.4246 0 78.7099 0.714674 78.7099 1.59668V27.3577C76.7126 28.0271 75.269 29.9148 75.269 32.1346V33.9797H44.1237C43.2417 33.9797 42.527 34.6944 42.527 35.5764C42.527 36.4584 43.2417 37.173 44.1237 37.173H52.9033V59.7863H30.2901V37.1728H36.6723C37.5543 37.1728 38.269 36.4582 38.269 35.5762C38.269 34.6941 37.5543 33.9795 36.6723 33.9795H33.731V32.1343C33.731 29.9145 32.2874 28.0271 30.2901 27.3575V1.59668C30.2901 0.714674 29.5754 0 28.6934 0C27.8114 0 27.0967 0.714674 27.0967 1.59668V27.3577C25.0996 28.0273 23.656 29.9148 23.656 32.1346V33.9797H10.075V32.9946C10.075 31.1655 8.58716 29.6776 6.758 29.6776H3.31705C1.48789 29.6774 0 31.1655 0 32.9944V63.9623C0 65.7915 1.48789 67.2794 3.31705 67.2794H6.758C8.58716 67.2794 10.075 65.7915 10.075 63.9623V62.9794H40V66.2579C40 67.14 40.7147 67.8546 41.5967 67.8546C42.4787 67.8546 43.1934 67.14 43.1934 66.2579V62.9794H65.8066V76.9896H43.1934V73.7091C43.1934 72.8271 42.4787 72.1124 41.5967 72.1124C40.7147 72.1124 40 72.8271 40 73.7091V77.819L36.9438 80.2638C36.1527 80.8969 35.699 81.8409 35.699 82.8538V84.1776C35.699 85.7696 36.9942 87.0648 38.5862 87.0648H70.4142C72.0062 87.0648 73.3014 85.7696 73.3014 84.1776V82.8538C73.3014 81.8409 72.8478 80.8969 72.0562 80.2636L69.0002 77.819V62.9794H84.6008C85.4828 62.9794 86.1975 62.2648 86.1975 61.3828C86.1975 60.5007 85.4828 59.7861 84.6008 59.7861H81.9035V37.1728H98.9252V59.7861H92.0518C91.1698 59.7861 90.4551 60.5007 90.4551 61.3828C90.4551 62.2648 91.1698 62.9794 92.0518 62.9794H98.9249V63.9623C98.9249 65.7915 100.413 67.2794 102.242 67.2794H105.683C107.512 67.2794 109 65.7915 109 63.9623V32.9944C109 31.1655 107.512 29.6774 105.683 29.6774ZM70.1077 82.8538V83.8712H38.8923V82.8538C38.8923 82.8159 38.9094 82.7808 38.9388 82.7572L42.157 80.1829H66.8432L70.061 82.757C70.0906 82.7808 70.1077 82.8159 70.1077 82.8538ZM78.4623 32.1343C78.4623 31.1176 79.2898 30.2901 80.3066 30.2901C81.3234 30.2901 82.1507 31.1176 82.1507 32.1343V33.9795H78.4623V32.1343ZM26.8493 32.1343C26.8493 31.1176 27.6766 30.2901 28.6934 30.2901C29.7102 30.2901 30.5377 31.1176 30.5377 32.1343V33.9795H26.8493V32.1343ZM6.88169 63.9623C6.88169 64.0305 6.82612 64.086 6.758 64.086H3.31705C3.24892 64.086 3.19336 64.0305 3.19336 63.9623V32.9944C3.19336 32.9263 3.24892 32.8707 3.31705 32.8707H6.758C6.82612 32.8707 6.88169 32.9263 6.88169 32.9944V63.9623ZM10.075 37.1728H27.0967V59.7861H10.075V37.1728ZM78.7099 59.7861H56.0967V37.1728H78.7099V59.7861ZM105.807 63.9623C105.807 64.0305 105.751 64.086 105.683 64.086H102.242C102.174 64.086 102.118 64.0305 102.118 63.9623V32.9944C102.118 32.9263 102.174 32.8707 102.242 32.8707H105.683C105.751 32.8707 105.807 32.9263 105.807 32.9944V63.9623Z" fill="black"/>
<path d="M70.2301 94.0693C70.2301 93.1873 69.5155 92.4727 68.6335 92.4727C67.7947 92.4727 67.1066 93.1198 67.0417 93.942C66.9738 94.0016 66.8707 94.0815 66.7954 94.14C66.2785 94.5405 65.3164 95.2858 65.3164 96.7349C65.3164 98.1841 66.2785 98.9298 66.7951 99.3301C66.8228 99.3518 66.8543 99.3761 66.8865 99.4012C66.8545 99.4263 66.823 99.4506 66.7954 99.4721C66.2785 99.8725 65.3164 100.618 65.3164 102.067C65.3164 103.516 66.2782 104.262 66.7949 104.663C66.823 104.684 66.8548 104.709 66.8873 104.735C66.855 104.76 66.823 104.785 66.7949 104.806C66.2782 105.207 65.3164 105.953 65.3164 107.402C65.3164 108.284 66.0311 108.999 66.9131 108.999C67.7523 108.999 68.4406 108.351 68.5049 107.529C68.5728 107.469 68.6762 107.389 68.7516 107.33C69.2685 106.93 70.2301 106.184 70.2301 104.735C70.2301 103.285 69.2681 102.539 68.7516 102.139C68.7237 102.117 68.6922 102.093 68.6599 102.068C68.6918 102.042 68.7235 102.018 68.7514 101.996C69.2683 101.596 70.2301 100.85 70.2301 99.4014C70.2301 97.952 69.2681 97.2065 68.7514 96.8063C68.7237 96.7845 68.6924 96.7603 68.6601 96.7352C68.692 96.71 68.7235 96.6858 68.7512 96.6643C69.2679 96.264 70.2301 95.5187 70.2301 94.0693Z" fill="black"/>
<path d="M56.9569 94.0693C56.9569 93.1873 56.2422 92.4727 55.3602 92.4727C54.5214 92.4727 53.8334 93.1196 53.7684 93.9418C53.7005 94.0016 53.5975 94.0813 53.5221 94.14C53.005 94.5405 52.043 95.2858 52.043 96.7349C52.043 98.1841 53.0052 98.9298 53.5219 99.3303C53.5496 99.3518 53.5809 99.3761 53.613 99.4012C53.5813 99.4263 53.5498 99.4506 53.5221 99.4721C53.005 99.8725 52.043 100.618 52.043 102.067C52.043 103.516 53.005 104.262 53.5215 104.663C53.5496 104.684 53.5813 104.709 53.6139 104.735C53.5817 104.76 53.5498 104.785 53.5217 104.806C53.0048 105.207 52.043 105.953 52.043 107.402C52.043 108.284 52.7576 108.999 53.6396 108.999C54.4789 108.999 55.1669 108.351 55.2314 107.529C55.2993 107.469 55.4028 107.389 55.4784 107.33C55.9951 106.93 56.9569 106.184 56.9569 104.735C56.9569 103.285 55.9949 102.539 55.4782 102.139C55.4503 102.117 55.4188 102.093 55.3864 102.068C55.4186 102.042 55.4501 102.018 55.478 101.996C55.9949 101.596 56.9569 100.851 56.9569 99.4014C56.9569 97.9522 55.9946 97.2065 55.478 96.806C55.4503 96.7845 55.419 96.7603 55.3868 96.7352C55.4188 96.71 55.4501 96.6858 55.4777 96.6643C55.9946 96.264 56.9569 95.5187 56.9569 94.0693Z" fill="black"/>
<path d="M43.6842 94.0693C43.6842 93.1873 42.9696 92.4727 42.0876 92.4727C41.2488 92.4727 40.5607 93.1196 40.4958 93.942C40.4279 94.0016 40.3248 94.0815 40.2495 94.14C39.7326 94.5405 38.7705 95.2858 38.7705 96.7349C38.7705 98.1841 39.7326 98.9298 40.2492 99.3301C40.2769 99.3518 40.3084 99.3761 40.3406 99.4012C40.3086 99.4263 40.2771 99.4506 40.2495 99.4721C39.7326 99.8725 38.7705 100.618 38.7705 102.067C38.7705 103.516 39.7323 104.262 40.249 104.663C40.2771 104.684 40.3089 104.709 40.3414 104.735C40.3091 104.76 40.2771 104.785 40.249 104.806C39.7323 105.207 38.7705 105.953 38.7705 107.402C38.7705 108.284 39.4852 108.999 40.3672 108.999C41.2064 108.999 41.8947 108.351 41.959 107.529C42.0269 107.469 42.1303 107.389 42.2057 107.33C42.7226 106.93 43.6842 106.184 43.6842 104.735C43.6842 103.285 42.7222 102.539 42.2057 102.139C42.1778 102.117 42.1463 102.093 42.114 102.068C42.1459 102.042 42.1776 102.018 42.2055 101.996C42.7224 101.596 43.6842 100.85 43.6842 99.4014C43.6842 97.952 42.7222 97.2065 42.2055 96.8063C42.1778 96.7845 42.1465 96.7603 42.1142 96.7352C42.1461 96.71 42.1776 96.6858 42.2053 96.6643C42.7222 96.264 43.6842 95.5187 43.6842 94.0693Z" fill="black"/>
</g>
<defs>
<clipPath id="clip0_1_3902">
<rect width="109" height="109" fill="white"/>
</clipPath>
</defs>
</svg>
